<svg width="66" height="59" viewBox="0 0 66 59" fill="none" xmlns="http://www.w3.org/2000/svg">
<mask id="mask0_3125_1567" style="mask-type:luminance" maskUnits="userSpaceOnUse" x="1" y="0" width="64" height="41">
<path d="M1.5498 0.787498H64.4498V40.5493H1.5498V0.787498Z" fill="white"/>
</mask>
<g mask="url(#mask0_3125_1567)">
<path d="M62.2077 24.5293L37.0467 25.5474C35.9947 25.5463 35.4405 25.3083 34.9673 24.9445C34.7602 24.7852 34.5683 24.6016 34.3546 24.3972C34.319 24.3631 34.2828 24.3285 34.2458 24.2934C33.9882 24.0482 33.6972 23.78 33.3222 23.5047L33.3222 23.5046C31.5901 22.2339 28.6477 20.7755 25.0776 20.7755C23.2546 20.7755 20.7093 21.139 18.6159 22.0902C16.5234 23.041 14.8564 24.5931 14.8564 26.9777C14.8564 29.3184 16.4761 30.8708 18.546 31.8326C20.6166 32.7948 23.1622 33.1799 25.0776 33.1799C26.704 33.1799 28.5903 32.7912 30.3209 32.1103C32.0505 31.4299 33.6342 30.4538 34.648 29.2719C34.9319 28.9424 35.3525 28.7255 35.7978 28.5911C36.2415 28.4573 36.7007 28.4082 37.0521 28.408C37.0527 28.408 37.0533 28.408 37.0539 28.408L37.055 28.4081L37.0686 28.4086L37.1224 28.4104L37.3325 28.4176L38.1311 28.445L40.9918 28.5429C43.3651 28.624 46.5437 28.7325 49.7649 28.8421C55.4065 29.034 61.1799 29.2292 62.9858 29.2859L63.1634 33.1507C63.1633 34.8798 63.0615 36.8435 62.7232 38.4774M62.2077 24.5293L63.9619 28.7012L64.0614 28.6915C64.0614 28.6916 64.0614 28.6918 64.0614 28.692C64.2846 30.9818 64.456 35.4984 63.8019 38.702L63.8018 38.7023C63.7659 38.8749 63.6712 38.9975 63.5472 39.0679C63.4254 39.137 63.2822 39.1521 63.1512 39.1247C63.0203 39.0974 62.895 39.0263 62.8109 38.9143C62.7254 38.8002 62.6873 38.65 62.7232 38.4774M62.2077 24.5293C58.8668 11.4581 47.0132 1.78613 32.898 1.79137H32.898C15.4321 1.79137 1.59206 16.5375 2.70895 33.9978L33.1684 35.1317L33.1692 35.1317C33.6782 35.1546 34.1844 34.9774 34.7066 34.6897C35.1662 34.4366 35.6294 34.103 36.1116 33.7558C36.1781 33.708 36.245 33.6598 36.3122 33.6116C37.413 32.8224 38.6185 32.0104 40.0243 32.0727L40.0252 32.0727L54.118 32.8256L54.1183 32.8257C54.2937 32.8355 54.4287 32.911 54.5166 33.023C54.6029 33.1329 54.6394 33.2721 54.6322 33.4056C54.625 33.5391 54.5739 33.6736 54.4762 33.7738C54.3767 33.8757 54.2343 33.9363 54.0585 33.9275L54.0582 33.9274L39.9785 33.1712L39.8998 33.1712C39.8997 33.1712 39.8996 33.1712 39.8995 33.1712C39.2829 33.178 38.5876 33.4655 37.9205 33.8514C37.2556 34.236 36.6315 34.7105 36.1587 35.0772L36.1586 35.0772C35.3454 35.7071 34.7342 36.0036 34.0912 36.1307C33.5179 36.244 32.9235 36.2209 32.1527 36.191C32.0669 36.1877 31.979 36.1843 31.8887 36.181L31.8886 36.181L3.47657 35.1262L3.47646 35.1262C3.2752 35.1185 3.09164 35.1159 2.92403 35.1136C2.86329 35.1128 2.80464 35.1119 2.748 35.1109C2.53717 35.1071 2.35238 35.1005 2.19962 35.0776C2.04798 35.0548 1.91412 35.0142 1.8149 34.9324C1.71109 34.8467 1.65782 34.7267 1.6466 34.5741M62.2077 24.5293L1.6466 34.5741M62.7232 38.4774C62.7232 38.4774 62.7232 38.4774 62.7232 38.4774L62.8211 38.4977L62.7232 38.4774ZM1.6466 34.5741C0.185494 16.2972 14.5962 0.687529 32.898 0.687529C47.7613 0.687529 60.2087 11.0329 63.4379 24.9171L1.6466 34.5741ZM50.5597 19.6435L50.5595 19.6431C46.6935 14.149 40.3106 10.563 33.0822 10.563C21.4675 10.563 12.0101 19.8405 11.7306 31.3887C11.7306 31.3887 11.7306 31.3887 11.7306 31.3888L11.6306 31.3863L50.5597 19.6435ZM50.5597 19.6435C50.661 19.786 50.7966 19.8593 50.9378 19.8736M50.5597 19.6435L50.9378 19.8736M2.61015 38.7977L2.60982 38.7977C2.30694 38.8084 2.05237 38.5704 2.03953 38.2685L2.03949 38.2676C2.03399 38.1031 2.07719 37.9719 2.17268 37.8755C2.26478 37.7826 2.39329 37.735 2.53209 37.7082C2.67168 37.6814 2.83484 37.6734 3.00767 37.67C3.07328 37.6687 3.13991 37.668 3.20783 37.6673C3.32253 37.6662 3.44093 37.6651 3.56441 37.6607C3.56443 37.6607 3.56445 37.6607 3.56447 37.6607L31.5831 36.5778L31.5832 36.5778C32.4686 36.5444 33.0247 36.5199 33.1 36.5148L33.1003 36.5148C34.4092 36.4296 35.5303 37.2112 36.6029 37.988C36.6432 38.0172 36.6834 38.0464 36.7236 38.0756C37.223 38.4379 37.7144 38.7944 38.2193 39.0698C38.7635 39.3667 39.3161 39.565 39.8997 39.5736H39.9786L54.0582 38.8155L54.0585 38.8155C54.2343 38.8067 54.3767 38.8673 54.4762 38.9691C54.5739 39.0692 54.625 39.2036 54.6322 39.3369C54.6394 39.4702 54.6029 39.6092 54.5164 39.7188C54.4284 39.8302 54.2933 39.9049 54.118 39.9138L54.1177 39.9138M2.61015 38.7977L54.1127 39.814L54.1177 39.9138M2.61015 38.7977L33.1686 37.6131L33.1695 37.613C33.677 37.5888 34.1827 37.7651 34.705 38.0521C35.1656 38.3052 35.6303 38.6393 36.1141 38.9872C36.1796 39.0342 36.2454 39.0816 36.3116 39.129C37.4134 39.9179 38.6202 40.7308 40.0241 40.6703L40.0252 40.6702L54.1177 39.9138M2.61015 38.7977L54.1177 39.9138M50.9378 19.8736C51.0765 19.8877 51.2136 19.8444 51.3227 19.7676M50.9378 19.8736L51.3227 19.7676M51.3227 19.7676C51.4318 19.6908 51.5188 19.5766 51.5518 19.4412M51.3227 19.7676L51.5518 19.4412M51.5518 19.4412C51.5855 19.3033 51.5612 19.1512 51.46 19.0083L51.5518 19.4412ZM63.5249 28.2993L63.5282 28.1993L63.5273 28.1993C63.527 28.1993 63.5267 28.1993 63.5264 28.1993L63.5249 28.2993ZM38.1683 27.3446C38.1683 27.3446 38.1682 27.3446 38.1682 27.3446L38.1648 27.4446L38.1683 27.3446ZM62.9153 25.6017C62.9158 25.6017 62.9163 25.6017 62.9168 25.6017L62.9182 25.6017L62.9141 25.5018L62.9153 25.6017ZM38.1444 26.602L38.1402 26.5021L38.1443 26.602L38.1444 26.602ZM33.5198 26.3288L33.5197 26.3286C31.9062 24.3375 28.476 22.2269 24.781 22.2269C23.5178 22.2269 22.1406 22.4484 20.678 22.9966C20.5139 23.0571 20.4076 23.1686 20.3571 23.3011C20.3074 23.4313 20.314 23.5748 20.3604 23.6999C20.4069 23.8251 20.4956 23.9383 20.6185 24.005C20.7437 24.0729 20.8977 24.0888 21.063 24.0285L21.0636 24.0282C25.4337 22.4029 29.7895 23.8394 32.5377 26.8763C32.7191 27.0769 32.8938 27.1858 33.0561 27.2157C33.2231 27.2466 33.3647 27.1915 33.4648 27.0918C33.5622 26.9948 33.6181 26.8586 33.6301 26.7231C33.6421 26.5874 33.611 26.4417 33.5198 26.3288ZM51.7629 21.5556L51.7631 21.556C52.1352 22.2233 52.4687 22.9044 52.762 23.6096L52.7625 23.6108C52.8318 23.7718 52.949 23.8725 53.0842 23.9167C53.217 23.9602 53.3603 23.9471 53.4833 23.8953C53.6063 23.8434 53.7155 23.7499 53.7761 23.6243C53.8378 23.4964 53.8456 23.3424 53.7765 23.181C53.4645 22.4408 53.1137 21.7199 52.7296 21.0221L52.7292 21.0214C52.643 20.8677 52.5158 20.779 52.3764 20.7487C52.2395 20.7189 52.0982 20.7469 51.9812 20.8117C51.8642 20.8765 51.7656 20.9814 51.7184 21.113C51.6702 21.247 51.6781 21.4016 51.7629 21.5556ZM11.7763 4.89256H10.9067C10.9082 4.81159 10.9113 4.73084 10.9143 4.65101C10.9155 4.61895 10.9167 4.58705 10.9178 4.55534C10.9227 4.41415 10.9255 4.27631 10.9155 4.15594C10.9057 4.03776 10.8828 3.92224 10.8262 3.83427C10.7642 3.73793 10.6674 3.68335 10.539 3.68335C10.411 3.68335 10.3148 3.73831 10.2535 3.83471C10.1976 3.92264 10.1751 4.03805 10.1655 4.15613C10.1558 4.27642 10.1587 4.41421 10.1636 4.55538C10.1647 4.58636 10.1659 4.61753 10.1671 4.64885C10.1701 4.72899 10.1732 4.81009 10.1747 4.8914C10.1001 4.88978 10.0255 4.88669 9.95149 4.88364C9.92284 4.88246 9.89429 4.88128 9.86586 4.88019C9.73295 4.87509 9.60222 4.87194 9.48773 4.8815C9.37536 4.89089 9.26416 4.91339 9.1792 4.9701C9.08612 5.03224 9.03496 5.12828 9.03496 5.25406C9.03496 5.3798 9.08606 5.47594 9.17875 5.53854C9.26355 5.59581 9.37464 5.61912 9.48713 5.6292C9.6017 5.63947 9.73246 5.637 9.86549 5.63239C9.89725 5.63129 9.92916 5.63007 9.96117 5.62885C10.032 5.62614 10.1033 5.62341 10.1747 5.62193C10.1732 5.7025 10.1701 5.78298 10.1671 5.86262C10.1659 5.89407 10.1647 5.92539 10.1636 5.95652C10.1587 6.09754 10.1558 6.23543 10.1655 6.35593C10.1751 6.47422 10.1976 6.58987 10.2534 6.67802C10.3146 6.77464 10.4107 6.83004 10.539 6.83004C10.6677 6.83004 10.7644 6.77503 10.8263 6.67846C10.8828 6.59027 10.9057 6.4745 10.9155 6.35612C10.9255 6.23554 10.9227 6.0976 10.9178 5.95656C10.9167 5.9247 10.9155 5.89265 10.9143 5.86047C10.9113 5.78149 10.9083 5.70169 10.9068 5.62181C10.991 5.62336 11.075 5.62652 11.158 5.62964C11.1899 5.63084 11.2217 5.63204 11.2533 5.63313C11.3977 5.63814 11.5385 5.64109 11.6614 5.63126C11.782 5.6216 11.8995 5.59882 11.9889 5.5425C12.0868 5.48079 12.143 5.3838 12.143 5.25406C12.143 5.05059 11.9746 4.89256 11.7763 4.89256ZM63.5161 14.733H62.6448C62.6464 14.652 62.6495 14.571 62.6526 14.4909C62.6538 14.4596 62.655 14.4284 62.6561 14.3973C62.6611 14.2563 62.6641 14.1184 62.6542 13.9978C62.6445 13.8794 62.6217 13.7635 62.565 13.6753C62.503 13.5786 62.406 13.5238 62.277 13.5238C62.1483 13.5238 62.0516 13.5788 61.9898 13.6753C61.9332 13.7635 61.9103 13.8793 61.9005 13.9977C61.8906 14.1183 61.8933 14.2562 61.8982 14.3972C61.8993 14.4291 61.9005 14.4612 61.9017 14.4934C61.9047 14.5723 61.9077 14.6521 61.9093 14.7319C61.8379 14.7304 61.7665 14.7277 61.6957 14.725C61.6637 14.7237 61.6318 14.7225 61.6 14.7214C61.467 14.7168 61.3363 14.7143 61.2217 14.7246C61.1092 14.7347 60.9981 14.758 60.9133 14.8153C60.8206 14.8779 60.7695 14.974 60.7695 15.0997C60.7695 15.2248 60.8212 15.32 60.914 15.3816C60.9987 15.4379 61.1097 15.4606 61.222 15.4703C61.3364 15.4802 61.4671 15.4776 61.6001 15.4729C61.6308 15.4718 61.6617 15.4706 61.6927 15.4694C61.7645 15.4666 61.8369 15.4638 61.9093 15.4623C61.9077 15.5429 61.9047 15.6233 61.9017 15.7027C61.9005 15.7348 61.8993 15.7667 61.8982 15.7985C61.8933 15.9396 61.8906 16.0775 61.9005 16.1979C61.9103 16.316 61.9333 16.4316 61.9899 16.5195C62.0518 16.6159 62.1486 16.6704 62.277 16.6704C62.4058 16.6704 62.5028 16.616 62.5649 16.5196C62.6217 16.4316 62.6445 16.316 62.6542 16.1978C62.6641 16.0774 62.6611 15.9395 62.6561 15.7984C62.655 15.7674 62.6538 15.7363 62.6526 15.705C62.6495 15.6248 62.6464 15.5436 62.6448 15.4623C62.731 15.4639 62.817 15.4673 62.9019 15.4707C62.9311 15.4719 62.9602 15.473 62.989 15.4741C63.1329 15.4795 63.2734 15.4829 63.3959 15.4737C63.5163 15.4646 63.6336 15.4425 63.723 15.3869C63.8211 15.3259 63.8776 15.2293 63.8776 15.0997C63.8776 14.9015 63.7196 14.733 63.5161 14.733ZM39.6074 37.9764H53.9617C54.1373 37.9764 54.2761 37.9084 54.3697 37.8013C54.4617 37.6961 54.5053 37.559 54.5053 37.4254C54.5053 37.2918 54.4617 37.1546 54.3697 37.0495C54.2761 36.9423 54.1373 36.8743 53.9617 36.8743H39.6074C39.4315 36.8743 39.2925 36.9423 39.1986 37.0494C39.1063 37.1545 39.0625 37.2917 39.0625 37.4254C39.0625 37.5591 39.1063 37.6962 39.1986 37.8014C39.2925 37.9085 39.4315 37.9764 39.6074 37.9764ZM39.6074 35.8704H53.9617C54.1374 35.8704 54.2762 35.8022 54.3698 35.6949C54.4617 35.5896 54.5053 35.4523 54.5053 35.3185C54.5053 35.1847 54.4617 35.0474 54.3698 34.942C54.2762 34.8347 54.1374 34.7666 53.9617 34.7666H39.6074C39.4314 34.7666 39.2924 34.8346 39.1985 34.9419C39.1063 35.0473 39.0625 35.1846 39.0625 35.3185C39.0625 35.4523 39.1063 35.5897 39.1985 35.695C39.2924 35.8023 39.4314 35.8704 39.6074 35.8704Z" fill="#828282" stroke="#828282" stroke-width="0.2"/>
</g>
<path d="M0.962221 46.6535H4.08215V54.9803H0.962221V53.9502H3.1338V47.6836H0.962221V46.6535ZM0.439941 46.6535H1.38829V56.1105H0.439941V46.6535ZM6.11629 47.5405H12.3836V48.5563H6.11629V47.5405ZM5.81392 50.5021H10.7481V51.5036H5.81392V50.5021ZM6.69355 45.3372L7.72436 45.5805C7.14711 47.6264 6.2125 49.5579 5.1542 50.8169C4.96178 50.6309 4.54946 50.2732 4.30206 50.1158C5.36036 48.9713 6.2125 47.1829 6.69355 45.3372ZM10.5969 50.5021H10.7618L11.0092 50.4592L11.7102 50.8598C11.669 50.9313 11.614 51.0029 11.5453 51.0744C6.37743 55.4667 6.02008 56.2107 6.02008 56.6828C6.02008 57.0691 6.41867 57.2265 7.03716 57.2265H10.9268C11.5178 57.2265 11.6689 56.969 11.7239 55.0804C11.9988 55.2378 12.3699 55.3809 12.6723 55.4381C12.5348 57.8846 12.1088 58.2852 10.8718 58.2852H7.07839C5.60776 58.2852 4.94804 57.7416 4.94804 56.8259C4.94804 56.0676 5.18169 55.152 10.5969 50.5021Z" fill="#333333"/>
<path d="M21.5098 45.28L22.4307 45.652C21.3586 46.9826 19.6818 48.213 18.2112 48.9856C18.0463 48.7996 17.6752 48.399 17.4415 48.2273C18.9534 47.5405 20.5477 46.4532 21.5098 45.28ZM28.3681 45.8666L29.1378 46.5676C27.7771 47.1113 25.7567 47.5548 24.0112 47.841C23.97 47.6264 23.8463 47.2973 23.7226 47.097C25.3994 46.7823 27.3098 46.3244 28.3681 45.8666ZM23.3927 45.466H24.3823V48.4276C24.3823 48.8282 24.5198 48.914 25.3444 48.914C25.7293 48.914 27.7222 48.914 28.2444 48.914C28.8629 48.914 28.9729 48.7423 29.0279 47.6836C29.2615 47.841 29.6601 47.9841 29.935 48.0413C29.8113 49.4577 29.4952 49.8154 28.3269 49.8154C27.9833 49.8154 25.6193 49.8154 25.2894 49.8154C23.7776 49.8154 23.3927 49.5435 23.3927 48.4276V45.466ZM20.4652 52.8199V53.7928H27.3923V52.8199H20.4652ZM20.4652 54.4938V55.4953H27.3923V54.4938H20.4652ZM20.4652 51.1459V52.1188H27.3923V51.1459H20.4652ZM19.4619 50.4306H28.4231V56.2107H19.4619V50.4306ZM25.0008 56.9404L25.8392 56.3967C27.3511 56.8831 29.0141 57.5127 30.0037 57.9991L28.8629 58.5428C27.9971 58.0706 26.4989 57.4554 25.0008 56.9404ZM21.7709 56.3681L22.7055 56.8116C21.5923 57.4983 19.8467 58.1565 18.4723 58.5571C18.3074 58.3425 17.95 57.9276 17.7164 57.7416C19.132 57.4268 20.7814 56.9261 21.7709 56.3681ZM20.1079 47.2544L20.8363 46.5104L21.0975 46.5963V50.0157H20.1079V47.2544Z" fill="#333333"/>
<path d="M41.9612 49.6437H44.82V50.4878H41.9612V49.6437ZM41.0815 53.7928H45.7133V54.5654H41.0815V53.7928ZM36.4772 45.9524H40.3256V46.8252H36.4772V45.9524ZM40.037 45.9524H40.2156L40.3943 45.9095L41.0403 46.2386C40.0095 48.6422 37.7417 50.2446 35.5151 51.0458C35.3914 50.8026 35.144 50.4306 34.9516 50.2446C37.0132 49.6008 39.1986 48.0699 40.037 46.1241V45.9524ZM42.2085 45.3372C43.1981 47.5548 45.2872 49.3003 47.8437 50.0014C47.6238 50.216 47.3626 50.588 47.2114 50.8455C44.5863 50.0014 42.4834 48.1128 41.3702 45.6091L42.2085 45.3372ZM45.0124 45.4374L45.782 45.9954C45.1086 46.6535 44.2427 47.3402 43.583 47.8124L42.9782 47.3116C43.6105 46.8252 44.5176 46.024 45.0124 45.4374ZM46.6617 46.8824L47.4176 47.4261C46.7579 48.0842 45.8645 48.771 45.191 49.2145L44.5588 48.7137C45.2185 48.2416 46.1531 47.4404 46.6617 46.8824ZM36.9033 49.7009H40.2706V53.1346H39.3498V50.545H36.9033V49.7009ZM36.5459 52.0473H37.4393C37.2469 53.1633 36.972 54.5654 36.7521 55.4524L35.8862 55.295C36.1199 54.4366 36.3948 53.0917 36.5459 52.0473ZM39.3498 54.222H40.2981C40.2981 54.222 40.2844 54.5224 40.2706 54.6512C40.0919 56.8259 39.9133 57.7416 39.5559 58.1136C39.3085 58.3568 39.0611 58.4283 38.6351 58.4712C38.2777 58.4855 37.5493 58.4712 36.7933 58.4426C36.7659 58.1565 36.6559 57.7702 36.491 57.5127C37.2606 57.5842 38.0028 57.5985 38.264 57.5985C38.5251 57.5985 38.6763 57.5842 38.7862 57.4697C39.0336 57.2265 39.1848 56.411 39.3498 54.3651V54.222ZM41.5901 49.6437H42.4834V50.774C42.4834 51.7039 42.1948 52.777 40.9716 53.5209C40.8341 53.3206 40.5043 52.9773 40.3119 52.8485C41.4114 52.2333 41.5901 51.4464 41.5901 50.7597V49.6437ZM45.4797 53.7928H45.6583L45.8233 53.7499L46.4143 53.9788C45.5072 56.6399 43.3493 57.9133 40.7517 58.5142C40.6692 58.2852 40.463 57.9276 40.2981 57.7273C42.6621 57.2694 44.7237 56.0962 45.4797 53.9359V53.7928ZM42.3872 54.5081C43.1844 56.1678 45.0261 57.2551 47.4588 57.6128C47.2389 57.8274 46.9778 58.2423 46.8403 58.4998C44.3252 58.0134 42.4834 56.7401 41.5763 54.7371L42.3872 54.5081ZM36.9995 52.0473H39.6934V52.8914H36.8621L36.9995 52.0473ZM36.5872 54.222H39.6109V55.0518H36.436L36.5872 54.222ZM44.3389 49.6437H45.246V51.8756C45.246 52.0759 45.246 52.219 45.301 52.2619C45.356 52.3048 45.4247 52.3048 45.5346 52.3048C45.6309 52.3048 45.8095 52.3048 45.9332 52.3048C46.0569 52.3048 46.1944 52.3048 46.2356 52.2905C46.2906 52.2619 46.3593 52.1904 46.4005 52.0902C46.428 51.9615 46.4418 51.6896 46.4555 51.3319C46.6342 51.4893 46.964 51.661 47.2114 51.7325C47.1839 52.1045 47.1427 52.5194 47.0465 52.6911C46.9778 52.8485 46.8129 52.963 46.6342 53.0202C46.4967 53.0774 46.2219 53.0917 46.0294 53.0917C45.8783 53.0917 45.4934 53.0917 45.356 53.0917C45.0811 53.0917 44.7787 53.0345 44.6 52.8771C44.4076 52.6911 44.3389 52.4765 44.3389 51.7898V49.6437ZM36.1061 47.655L36.7109 47.0684C37.3431 47.4547 38.1265 48.0556 38.4976 48.4705L37.8654 49.1286C37.508 48.6851 36.7521 48.0699 36.1061 47.655Z" fill="#333333"/>
<path d="M52.8466 46.0812H57.5746V47.0827H52.8466V46.0812ZM53.0115 50.1301H57.4371V51.1316H53.0115V50.1301ZM52.5854 55.2235C53.8636 54.8944 55.7878 54.3365 57.6433 53.7785L57.7807 54.7371C56.049 55.2807 54.2072 55.8387 52.8603 56.2679L52.5854 55.2235ZM59.1689 49.1716V50.6166H63.677V49.1716H59.1689ZM59.1689 51.4893V52.9343H63.677V51.4893H59.1689ZM59.1689 46.8824V48.3131H63.677V46.8824H59.1689ZM58.2068 45.9667H64.6803V53.8643H58.2068V45.9667ZM61.8078 53.4208H62.7974V57.0548C62.7974 57.4125 62.8661 57.4697 63.1959 57.4697C63.3471 57.4697 64.0618 57.4697 64.268 57.4697C64.5841 57.4697 64.6391 57.2551 64.6803 55.7815C64.8865 55.9532 65.2988 56.1249 65.5599 56.1821C65.4775 57.9562 65.2163 58.414 64.3779 58.414C64.1718 58.414 63.2372 58.414 63.0447 58.414C62.0414 58.414 61.8078 58.0992 61.8078 57.0691V53.4208ZM59.4713 53.6354H60.4746C60.2272 56.0533 59.5262 57.6986 56.7499 58.6C56.6399 58.3282 56.3651 57.9133 56.1589 57.713C58.6878 56.9976 59.2513 55.6241 59.4713 53.6354ZM54.757 46.4818H55.7466V54.9087L54.757 55.0804V46.4818Z" fill="#333333"/>
</svg>
