<svg width="66" height="59" viewBox="0 0 66 59" fill="none" xmlns="http://www.w3.org/2000/svg">
<mask id="mask0_3489_2148" style="mask-type:luminance" maskUnits="userSpaceOnUse" x="1" y="0" width="64" height="41">
<path d="M1.54883 0.787498H64.4488V40.5493H1.54883V0.787498Z" fill="white"/>
</mask>
<g mask="url(#mask0_3489_2148)">
<mask id="path-2-outside-1_3489_2148" maskUnits="userSpaceOnUse" x="0.644531" y="-0.212471" width="64" height="41" fill="black">
<rect fill="white" x="0.644531" y="-0.212471" width="64" height="41"/>
<path d="M62.335 24.6242L37.0486 25.6474L37.0679 26.095L37.0539 25.6474C34.9022 25.6474 34.7425 24.6716 33.263 23.5853C31.5431 22.3234 28.621 20.8755 25.0776 20.8755C21.4517 20.8755 14.9564 22.3234 14.9564 26.9777C14.9564 31.5461 21.2674 33.0799 25.0776 33.0799C28.3016 33.0799 32.5733 31.5373 34.5723 29.2066C35.1742 28.5081 36.3343 28.308 37.0539 28.308C37.0539 28.308 62.1419 29.168 63.5056 29.2013L63.5161 28.7503L63.0633 28.7942L63.2634 33.1484C63.2634 34.8806 63.1616 36.8532 62.8211 38.4977C62.7 39.0804 63.5828 39.2646 63.7039 38.682C64.355 35.4931 64.1848 30.988 63.9619 28.7012C63.9426 28.4783 63.753 28.3028 63.5249 28.2993L38.1648 27.4446C36.7678 27.3954 35.0286 27.2989 33.8878 28.6187C32.3399 30.4106 28.5929 32.1779 25.0776 32.1779C21.9905 32.1779 15.8584 30.9792 15.8584 26.9777C15.8584 23.0553 21.7904 21.7741 25.0776 21.7794C28.0436 21.7794 32.0433 23.2009 33.8878 25.3368C35.0286 26.6531 36.7573 26.56 38.1402 26.5021L62.9141 25.5018C63.2002 25.4982 63.409 25.2262 63.3406 24.9401C60.1219 11.1 47.7139 0.787529 32.898 0.787529C14.6545 0.787529 0.289644 16.3476 1.74631 34.5664C1.78492 35.0947 2.37812 34.9841 3.48028 35.0263L31.8923 36.081C33.7088 36.1477 34.4863 36.246 36.0974 34.9982C37.0433 34.2646 38.6123 33.0852 39.8987 33.0712L39.8935 32.6201L39.883 33.0712H39.9812L54.0635 33.8276C54.6567 33.8574 54.7041 32.9588 54.1127 32.9255L40.0198 32.1726C37.2873 32.0515 35.3059 35.3281 33.1647 35.2316L2.61505 34.0943C1.44094 16.5371 15.3442 1.69137 32.898 1.69137C47.1031 1.6861 59.025 11.4493 62.335 24.6242ZM11.7763 4.99256H10.8057C10.8057 4.39586 10.9216 3.78335 10.539 3.78335C10.1599 3.78335 10.2757 4.39586 10.2757 4.99256C9.71763 4.99256 9.13496 4.87498 9.13496 5.25406C9.13496 5.63315 9.71763 5.52082 10.2757 5.52082C10.2757 6.11402 10.1599 6.73004 10.539 6.73004C10.9216 6.73004 10.8057 6.11402 10.8057 5.52082C11.4165 5.52082 12.043 5.63841 12.043 5.25406C12.043 5.10839 11.9219 4.99256 11.7763 4.99256ZM63.5161 14.833H62.5438C62.5438 14.2398 62.6614 13.6238 62.277 13.6238C61.8944 13.6238 62.0103 14.2398 62.0103 14.833C61.4522 14.833 60.8695 14.7207 60.8695 15.0997C60.8695 15.4736 61.4522 15.3612 62.0103 15.3612C62.0103 15.9579 61.8944 16.5704 62.277 16.5704C62.6614 16.5704 62.5438 15.9579 62.5438 15.3612C63.151 15.3612 63.7776 15.4823 63.7776 15.0997C63.7776 14.9541 63.6618 14.833 63.5161 14.833ZM33.442 26.3916C31.8449 24.4207 28.442 22.3269 24.781 22.3269C23.5297 22.3269 22.1642 22.5463 20.7128 23.0904C20.16 23.2939 20.4706 24.1381 21.0287 23.9345C25.4409 22.2936 29.839 23.745 32.6119 26.8092C33.3051 27.5762 33.7281 26.7461 33.442 26.3916ZM11.6306 31.3863C11.9114 19.7839 21.4131 10.463 33.0822 10.463C40.3445 10.463 46.7574 14.066 50.6412 19.5856C50.9817 20.0647 51.7188 19.547 51.3783 19.0661C47.3348 13.3184 40.6464 9.56089 33.0822 9.56089C20.9217 9.56089 11.0234 19.2749 10.7268 31.367C10.718 31.9585 11.6166 31.9831 11.6306 31.3863ZM51.8505 21.5073C52.2243 22.1777 52.5595 22.8622 52.8543 23.5712C53.0877 24.1135 53.9179 23.7643 53.6844 23.2202C53.3738 22.4831 53.0246 21.7653 52.642 21.0703C52.3506 20.5508 51.5644 20.9878 51.8505 21.5073ZM39.6074 37.8764H53.9617C54.5532 37.8764 54.5532 36.9743 53.9617 36.9743H39.6074C39.0142 36.9743 39.0142 37.8764 39.6074 37.8764ZM39.6074 35.7704H53.9617C54.5532 35.7704 54.5532 34.8666 53.9617 34.8666H39.6074C39.0142 34.8666 39.0142 35.7704 39.6074 35.7704ZM2.60627 38.6978L33.1647 37.5131C35.3006 37.4113 37.2908 40.688 40.0198 40.5704L54.1127 39.814C54.7041 39.7841 54.6567 38.8856 54.0635 38.9154L39.9812 39.6736H39.883L39.8935 40.1246L39.8987 39.6736C37.4751 39.6385 35.6411 36.4496 33.1068 36.6146C33.0296 36.6198 32.4715 36.6444 31.587 36.6777L3.56803 37.7606C2.78002 37.7887 2.12013 37.6869 2.13944 38.2643C2.14997 38.5117 2.35882 38.7065 2.60627 38.6978Z"/>
</mask>
<path d="M62.335 24.6242L37.0486 25.6474L37.0679 26.095L37.0539 25.6474C34.9022 25.6474 34.7425 24.6716 33.263 23.5853C31.5431 22.3234 28.621 20.8755 25.0776 20.8755C21.4517 20.8755 14.9564 22.3234 14.9564 26.9777C14.9564 31.5461 21.2674 33.0799 25.0776 33.0799C28.3016 33.0799 32.5733 31.5373 34.5723 29.2066C35.1742 28.5081 36.3343 28.308 37.0539 28.308C37.0539 28.308 62.1419 29.168 63.5056 29.2013L63.5161 28.7503L63.0633 28.7942L63.2634 33.1484C63.2634 34.8806 63.1616 36.8532 62.8211 38.4977C62.7 39.0804 63.5828 39.2646 63.7039 38.682C64.355 35.4931 64.1848 30.988 63.9619 28.7012C63.9426 28.4783 63.753 28.3028 63.5249 28.2993L38.1648 27.4446C36.7678 27.3954 35.0286 27.2989 33.8878 28.6187C32.3399 30.4106 28.5929 32.1779 25.0776 32.1779C21.9905 32.1779 15.8584 30.9792 15.8584 26.9777C15.8584 23.0553 21.7904 21.7741 25.0776 21.7794C28.0436 21.7794 32.0433 23.2009 33.8878 25.3368C35.0286 26.6531 36.7573 26.56 38.1402 26.5021L62.9141 25.5018C63.2002 25.4982 63.409 25.2262 63.3406 24.9401C60.1219 11.1 47.7139 0.787529 32.898 0.787529C14.6545 0.787529 0.289644 16.3476 1.74631 34.5664C1.78492 35.0947 2.37812 34.9841 3.48028 35.0263L31.8923 36.081C33.7088 36.1477 34.4863 36.246 36.0974 34.9982C37.0433 34.2646 38.6123 33.0852 39.8987 33.0712L39.8935 32.6201L39.883 33.0712H39.9812L54.0635 33.8276C54.6567 33.8574 54.7041 32.9588 54.1127 32.9255L40.0198 32.1726C37.2873 32.0515 35.3059 35.3281 33.1647 35.2316L2.61505 34.0943C1.44094 16.5371 15.3442 1.69137 32.898 1.69137C47.1031 1.6861 59.025 11.4493 62.335 24.6242ZM11.7763 4.99256H10.8057C10.8057 4.39586 10.9216 3.78335 10.539 3.78335C10.1599 3.78335 10.2757 4.39586 10.2757 4.99256C9.71763 4.99256 9.13496 4.87498 9.13496 5.25406C9.13496 5.63315 9.71763 5.52082 10.2757 5.52082C10.2757 6.11402 10.1599 6.73004 10.539 6.73004C10.9216 6.73004 10.8057 6.11402 10.8057 5.52082C11.4165 5.52082 12.043 5.63841 12.043 5.25406C12.043 5.10839 11.9219 4.99256 11.7763 4.99256ZM63.5161 14.833H62.5438C62.5438 14.2398 62.6614 13.6238 62.277 13.6238C61.8944 13.6238 62.0103 14.2398 62.0103 14.833C61.4522 14.833 60.8695 14.7207 60.8695 15.0997C60.8695 15.4736 61.4522 15.3612 62.0103 15.3612C62.0103 15.9579 61.8944 16.5704 62.277 16.5704C62.6614 16.5704 62.5438 15.9579 62.5438 15.3612C63.151 15.3612 63.7776 15.4823 63.7776 15.0997C63.7776 14.9541 63.6618 14.833 63.5161 14.833ZM33.442 26.3916C31.8449 24.4207 28.442 22.3269 24.781 22.3269C23.5297 22.3269 22.1642 22.5463 20.7128 23.0904C20.16 23.2939 20.4706 24.1381 21.0287 23.9345C25.4409 22.2936 29.839 23.745 32.6119 26.8092C33.3051 27.5762 33.7281 26.7461 33.442 26.3916ZM11.6306 31.3863C11.9114 19.7839 21.4131 10.463 33.0822 10.463C40.3445 10.463 46.7574 14.066 50.6412 19.5856C50.9817 20.0647 51.7188 19.547 51.3783 19.0661C47.3348 13.3184 40.6464 9.56089 33.0822 9.56089C20.9217 9.56089 11.0234 19.2749 10.7268 31.367C10.718 31.9585 11.6166 31.9831 11.6306 31.3863ZM51.8505 21.5073C52.2243 22.1777 52.5595 22.8622 52.8543 23.5712C53.0877 24.1135 53.9179 23.7643 53.6844 23.2202C53.3738 22.4831 53.0246 21.7653 52.642 21.0703C52.3506 20.5508 51.5644 20.9878 51.8505 21.5073ZM39.6074 37.8764H53.9617C54.5532 37.8764 54.5532 36.9743 53.9617 36.9743H39.6074C39.0142 36.9743 39.0142 37.8764 39.6074 37.8764ZM39.6074 35.7704H53.9617C54.5532 35.7704 54.5532 34.8666 53.9617 34.8666H39.6074C39.0142 34.8666 39.0142 35.7704 39.6074 35.7704ZM2.60627 38.6978L33.1647 37.5131C35.3006 37.4113 37.2908 40.688 40.0198 40.5704L54.1127 39.814C54.7041 39.7841 54.6567 38.8856 54.0635 38.9154L39.9812 39.6736H39.883L39.8935 40.1246L39.8987 39.6736C37.4751 39.6385 35.6411 36.4496 33.1068 36.6146C33.0296 36.6198 32.4715 36.6444 31.587 36.6777L3.56803 37.7606C2.78002 37.7887 2.12013 37.6869 2.13944 38.2643C2.14997 38.5117 2.35882 38.7065 2.60627 38.6978Z" fill="#828282"/>
<path d="M62.335 24.6242L37.0486 25.6474L37.0679 26.095L37.0539 25.6474C34.9022 25.6474 34.7425 24.6716 33.263 23.5853C31.5431 22.3234 28.621 20.8755 25.0776 20.8755C21.4517 20.8755 14.9564 22.3234 14.9564 26.9777C14.9564 31.5461 21.2674 33.0799 25.0776 33.0799C28.3016 33.0799 32.5733 31.5373 34.5723 29.2066C35.1742 28.5081 36.3343 28.308 37.0539 28.308C37.0539 28.308 62.1419 29.168 63.5056 29.2013L63.5161 28.7503L63.0633 28.7942L63.2634 33.1484C63.2634 34.8806 63.1616 36.8532 62.8211 38.4977C62.7 39.0804 63.5828 39.2646 63.7039 38.682C64.355 35.4931 64.1848 30.988 63.9619 28.7012C63.9426 28.4783 63.753 28.3028 63.5249 28.2993L38.1648 27.4446C36.7678 27.3954 35.0286 27.2989 33.8878 28.6187C32.3399 30.4106 28.5929 32.1779 25.0776 32.1779C21.9905 32.1779 15.8584 30.9792 15.8584 26.9777C15.8584 23.0553 21.7904 21.7741 25.0776 21.7794C28.0436 21.7794 32.0433 23.2009 33.8878 25.3368C35.0286 26.6531 36.7573 26.56 38.1402 26.5021L62.9141 25.5018C63.2002 25.4982 63.409 25.2262 63.3406 24.9401C60.1219 11.1 47.7139 0.787529 32.898 0.787529C14.6545 0.787529 0.289644 16.3476 1.74631 34.5664C1.78492 35.0947 2.37812 34.9841 3.48028 35.0263L31.8923 36.081C33.7088 36.1477 34.4863 36.246 36.0974 34.9982C37.0433 34.2646 38.6123 33.0852 39.8987 33.0712L39.8935 32.6201L39.883 33.0712H39.9812L54.0635 33.8276C54.6567 33.8574 54.7041 32.9588 54.1127 32.9255L40.0198 32.1726C37.2873 32.0515 35.3059 35.3281 33.1647 35.2316L2.61505 34.0943C1.44094 16.5371 15.3442 1.69137 32.898 1.69137C47.1031 1.6861 59.025 11.4493 62.335 24.6242ZM11.7763 4.99256H10.8057C10.8057 4.39586 10.9216 3.78335 10.539 3.78335C10.1599 3.78335 10.2757 4.39586 10.2757 4.99256C9.71763 4.99256 9.13496 4.87498 9.13496 5.25406C9.13496 5.63315 9.71763 5.52082 10.2757 5.52082C10.2757 6.11402 10.1599 6.73004 10.539 6.73004C10.9216 6.73004 10.8057 6.11402 10.8057 5.52082C11.4165 5.52082 12.043 5.63841 12.043 5.25406C12.043 5.10839 11.9219 4.99256 11.7763 4.99256ZM63.5161 14.833H62.5438C62.5438 14.2398 62.6614 13.6238 62.277 13.6238C61.8944 13.6238 62.0103 14.2398 62.0103 14.833C61.4522 14.833 60.8695 14.7207 60.8695 15.0997C60.8695 15.4736 61.4522 15.3612 62.0103 15.3612C62.0103 15.9579 61.8944 16.5704 62.277 16.5704C62.6614 16.5704 62.5438 15.9579 62.5438 15.3612C63.151 15.3612 63.7776 15.4823 63.7776 15.0997C63.7776 14.9541 63.6618 14.833 63.5161 14.833ZM33.442 26.3916C31.8449 24.4207 28.442 22.3269 24.781 22.3269C23.5297 22.3269 22.1642 22.5463 20.7128 23.0904C20.16 23.2939 20.4706 24.1381 21.0287 23.9345C25.4409 22.2936 29.839 23.745 32.6119 26.8092C33.3051 27.5762 33.7281 26.7461 33.442 26.3916ZM11.6306 31.3863C11.9114 19.7839 21.4131 10.463 33.0822 10.463C40.3445 10.463 46.7574 14.066 50.6412 19.5856C50.9817 20.0647 51.7188 19.547 51.3783 19.0661C47.3348 13.3184 40.6464 9.56089 33.0822 9.56089C20.9217 9.56089 11.0234 19.2749 10.7268 31.367C10.718 31.9585 11.6166 31.9831 11.6306 31.3863ZM51.8505 21.5073C52.2243 22.1777 52.5595 22.8622 52.8543 23.5712C53.0877 24.1135 53.9179 23.7643 53.6844 23.2202C53.3738 22.4831 53.0246 21.7653 52.642 21.0703C52.3506 20.5508 51.5644 20.9878 51.8505 21.5073ZM39.6074 37.8764H53.9617C54.5532 37.8764 54.5532 36.9743 53.9617 36.9743H39.6074C39.0142 36.9743 39.0142 37.8764 39.6074 37.8764ZM39.6074 35.7704H53.9617C54.5532 35.7704 54.5532 34.8666 53.9617 34.8666H39.6074C39.0142 34.8666 39.0142 35.7704 39.6074 35.7704ZM2.60627 38.6978L33.1647 37.5131C35.3006 37.4113 37.2908 40.688 40.0198 40.5704L54.1127 39.814C54.7041 39.7841 54.6567 38.8856 54.0635 38.9154L39.9812 39.6736H39.883L39.8935 40.1246L39.8987 39.6736C37.4751 39.6385 35.6411 36.4496 33.1068 36.6146C33.0296 36.6198 32.4715 36.6444 31.587 36.6777L3.56803 37.7606C2.78002 37.7887 2.12013 37.6869 2.13944 38.2643C2.14997 38.5117 2.35882 38.7065 2.60627 38.6978Z" stroke="#828282" stroke-width="0.4" mask="url(#path-2-outside-1_3489_2148)"/>
</g>
<path d="M0.961733 46.6535H4.08167V54.9803H0.961733V53.9502H3.13332V47.6836H0.961733V46.6535ZM0.439453 46.6535H1.3878V56.1105H0.439453V46.6535ZM6.11581 47.5405H12.3832V48.5563H6.11581V47.5405ZM5.81343 50.5021H10.7476V51.5036H5.81343V50.5021ZM6.69306 45.3372L7.72388 45.5805C7.14662 47.6264 6.21202 49.5579 5.15371 50.8169C4.96129 50.6309 4.54897 50.2732 4.30157 50.1158C5.35988 48.9713 6.21202 47.1829 6.69306 45.3372ZM10.5964 50.5021H10.7613L11.0087 50.4592L11.7097 50.8598C11.6685 50.9313 11.6135 51.0029 11.5448 51.0744C6.37695 55.4667 6.0196 56.2107 6.0196 56.6828C6.0196 57.0691 6.41818 57.2265 7.03667 57.2265H10.9263C11.5173 57.2265 11.6685 56.969 11.7234 55.0804C11.9983 55.2378 12.3694 55.3809 12.6718 55.4381C12.5343 57.8846 12.1083 58.2852 10.8713 58.2852H7.0779C5.60727 58.2852 4.94755 57.7416 4.94755 56.8259C4.94755 56.0676 5.1812 55.152 10.5964 50.5021Z" fill="#333333"/>
<path d="M21.5093 45.28L22.4302 45.652C21.3581 46.9826 19.6813 48.213 18.2107 48.9856C18.0458 48.7996 17.6747 48.399 17.441 48.2273C18.9529 47.5405 20.5472 46.4532 21.5093 45.28ZM28.3677 45.8666L29.1373 46.5676C27.7767 47.1113 25.7563 47.5548 24.0107 47.841C23.9695 47.6264 23.8458 47.2973 23.7221 47.097C25.3989 46.7823 27.3094 46.3244 28.3677 45.8666ZM23.3923 45.466H24.3818V48.4276C24.3818 48.8282 24.5193 48.914 25.3439 48.914C25.7288 48.914 27.7217 48.914 28.244 48.914C28.8624 48.914 28.9724 48.7423 29.0274 47.6836C29.261 47.841 29.6596 47.9841 29.9345 48.0413C29.8108 49.4577 29.4947 49.8154 28.3264 49.8154C27.9828 49.8154 25.6188 49.8154 25.289 49.8154C23.7771 49.8154 23.3923 49.5435 23.3923 48.4276V45.466ZM20.4647 52.8199V53.7928H27.3918V52.8199H20.4647ZM20.4647 54.4938V55.4953H27.3918V54.4938H20.4647ZM20.4647 51.1459V52.1188H27.3918V51.1459H20.4647ZM19.4614 50.4306H28.4226V56.2107H19.4614V50.4306ZM25.0003 56.9404L25.8387 56.3967C27.3506 56.8831 29.0136 57.5127 30.0032 57.9991L28.8624 58.5428C27.9966 58.0706 26.4984 57.4554 25.0003 56.9404ZM21.7704 56.3681L22.705 56.8116C21.5918 57.4983 19.8463 58.1565 18.4718 58.5571C18.3069 58.3425 17.9496 57.9276 17.7159 57.7416C19.1316 57.4268 20.7809 56.9261 21.7704 56.3681ZM20.1074 47.2544L20.8358 46.5104L21.097 46.5963V50.0157H20.1074V47.2544Z" fill="#333333"/>
<path d="M41.9607 49.6437H44.8195V50.4878H41.9607V49.6437ZM41.081 53.7928H45.7128V54.5654H41.081V53.7928ZM36.4767 45.9524H40.3251V46.8252H36.4767V45.9524ZM40.0365 45.9524H40.2152L40.3938 45.9095L41.0398 46.2386C40.009 48.6422 37.7412 50.2446 35.5146 51.0458C35.3909 50.8026 35.1435 50.4306 34.9511 50.2446C37.0128 49.6008 39.1981 48.0699 40.0365 46.1241V45.9524ZM42.2081 45.3372C43.1976 47.5548 45.2868 49.3003 47.8432 50.0014C47.6233 50.216 47.3621 50.588 47.2109 50.8455C44.5858 50.0014 42.4829 48.1128 41.3697 45.6091L42.2081 45.3372ZM45.0119 45.4374L45.7816 45.9954C45.1081 46.6535 44.2422 47.3402 43.5825 47.8124L42.9777 47.3116C43.61 46.8252 44.5171 46.024 45.0119 45.4374ZM46.6612 46.8824L47.4171 47.4261C46.7574 48.0842 45.864 48.771 45.1906 49.2145L44.5583 48.7137C45.218 48.2416 46.1526 47.4404 46.6612 46.8824ZM36.9028 49.7009H40.2701V53.1346H39.3493V50.545H36.9028V49.7009ZM36.5455 52.0473H37.4388C37.2464 53.1633 36.9715 54.5654 36.7516 55.4524L35.8857 55.295C36.1194 54.4366 36.3943 53.0917 36.5455 52.0473ZM39.3493 54.222H40.2976C40.2976 54.222 40.2839 54.5224 40.2701 54.6512C40.0915 56.8259 39.9128 57.7416 39.5554 58.1136C39.308 58.3568 39.0606 58.4283 38.6346 58.4712C38.2772 58.4855 37.5488 58.4712 36.7929 58.4426C36.7654 58.1565 36.6554 57.7702 36.4905 57.5127C37.2602 57.5842 38.0023 57.5985 38.2635 57.5985C38.5246 57.5985 38.6758 57.5842 38.7858 57.4697C39.0332 57.2265 39.1843 56.411 39.3493 54.3651V54.222ZM41.5896 49.6437H42.4829V50.774C42.4829 51.7039 42.1943 52.777 40.9711 53.5209C40.8336 53.3206 40.5038 52.9773 40.3114 52.8485C41.4109 52.2333 41.5896 51.4464 41.5896 50.7597V49.6437ZM45.4792 53.7928H45.6579L45.8228 53.7499L46.4138 53.9788C45.5067 56.6399 43.3488 57.9133 40.7512 58.5142C40.6687 58.2852 40.4625 57.9276 40.2976 57.7273C42.6616 57.2694 44.7232 56.0962 45.4792 53.9359V53.7928ZM42.3867 54.5081C43.1839 56.1678 45.0256 57.2551 47.4583 57.6128C47.2384 57.8274 46.9773 58.2423 46.8399 58.4998C44.3247 58.0134 42.4829 56.7401 41.5758 54.7371L42.3867 54.5081ZM36.999 52.0473H39.6929V52.8914H36.8616L36.999 52.0473ZM36.5867 54.222H39.6104V55.0518H36.4355L36.5867 54.222ZM44.3384 49.6437H45.2455V51.8756C45.2455 52.0759 45.2455 52.219 45.3005 52.2619C45.3555 52.3048 45.4242 52.3048 45.5342 52.3048C45.6304 52.3048 45.809 52.3048 45.9327 52.3048C46.0564 52.3048 46.1939 52.3048 46.2351 52.2905C46.2901 52.2619 46.3588 52.1904 46.4 52.0902C46.4275 51.9615 46.4413 51.6896 46.455 51.3319C46.6337 51.4893 46.9636 51.661 47.2109 51.7325C47.1835 52.1045 47.1422 52.5194 47.046 52.6911C46.9773 52.8485 46.8124 52.963 46.6337 53.0202C46.4963 53.0774 46.2214 53.0917 46.0289 53.0917C45.8778 53.0917 45.4929 53.0917 45.3555 53.0917C45.0806 53.0917 44.7782 53.0345 44.5996 52.8771C44.4071 52.6911 44.3384 52.4765 44.3384 51.7898V49.6437ZM36.1056 47.655L36.7104 47.0684C37.3426 47.4547 38.126 48.0556 38.4971 48.4705L37.8649 49.1286C37.5075 48.6851 36.7516 48.0699 36.1056 47.655Z" fill="#333333"/>
<path d="M52.8461 46.0812H57.5741V47.0827H52.8461V46.0812ZM53.011 50.1301H57.4366V51.1316H53.011V50.1301ZM52.5849 55.2235C53.8631 54.8944 55.7873 54.3365 57.6428 53.7785L57.7802 54.7371C56.0485 55.2807 54.2067 55.8387 52.8598 56.2679L52.5849 55.2235ZM59.1684 49.1716V50.6166H63.6765V49.1716H59.1684ZM59.1684 51.4893V52.9343H63.6765V51.4893H59.1684ZM59.1684 46.8824V48.3131H63.6765V46.8824H59.1684ZM58.2063 45.9667H64.6798V53.8643H58.2063V45.9667ZM61.8073 53.4208H62.7969V57.0548C62.7969 57.4125 62.8656 57.4697 63.1954 57.4697C63.3466 57.4697 64.0613 57.4697 64.2675 57.4697C64.5836 57.4697 64.6386 57.2551 64.6798 55.7815C64.886 55.9532 65.2983 56.1249 65.5594 56.1821C65.477 57.9562 65.2158 58.414 64.3774 58.414C64.1713 58.414 63.2367 58.414 63.0443 58.414C62.0409 58.414 61.8073 58.0992 61.8073 57.0691V53.4208ZM59.4708 53.6354H60.4741C60.2267 56.0533 59.5257 57.6986 56.7494 58.6C56.6395 58.3282 56.3646 57.9133 56.1584 57.713C58.6874 56.9976 59.2509 55.6241 59.4708 53.6354ZM54.7565 46.4818H55.7461V54.9087L54.7565 55.0804V46.4818Z" fill="#333333"/>
</svg>
