<svg width="56" height="56" viewBox="0 0 56 56" fill="none" xmlns="http://www.w3.org/2000/svg">
<circle cx="28" cy="28" r="28" fill="black" fill-opacity="0.6"/>
<path d="M35.6846 43C34.5787 43 33.6411 42.6136 32.8717 41.8408C32.1025 41.0681 31.7179 40.1297 31.7179 39.0258C31.7179 38.8592 31.7917 38.4382 31.9392 37.7629L19.9425 30.6408C19.5833 31.0575 19.1428 31.3839 18.6208 31.62C18.0986 31.8561 17.5392 31.9742 16.9425 31.9742C15.8472 31.9742 14.9164 31.5843 14.15 30.8046C13.3833 30.0246 13 29.0897 13 28C13 26.9103 13.3833 25.9754 14.15 25.1954C14.9164 24.4157 15.8472 24.0258 16.9425 24.0258C17.5392 24.0258 18.0986 24.1439 18.6208 24.38C19.1428 24.6161 19.5833 24.9425 19.9425 25.3592L31.9392 18.2692C31.8622 18.0533 31.8061 17.8392 31.7708 17.6267C31.7356 17.4139 31.7179 17.1964 31.7179 16.9742C31.7179 15.8703 32.105 14.9319 32.8792 14.1592C33.6536 13.3864 34.5939 13 35.7 13C36.8061 13 37.7437 13.3871 38.5129 14.1612C39.2821 14.9357 39.6667 15.876 39.6667 16.9821C39.6667 18.0879 39.2803 19.0256 38.5075 19.795C37.7347 20.5642 36.7964 20.9488 35.6925 20.9488C35.0897 20.9488 34.5342 20.8253 34.0258 20.5783C33.5172 20.3317 33.0833 20 32.7242 19.5833L20.7275 26.705C20.8044 26.9208 20.8606 27.1351 20.8958 27.3479C20.9311 27.5604 20.9487 27.7778 20.9487 28C20.9487 28.2222 20.9311 28.4396 20.8958 28.6521C20.8606 28.8649 20.8044 29.0792 20.7275 29.295L32.7242 36.4167C33.0833 36 33.5172 35.6683 34.0258 35.4217C34.5342 35.1747 35.0897 35.0513 35.6925 35.0513C36.7964 35.0513 37.7347 35.4383 38.5075 36.2125C39.2803 36.9869 39.6667 37.9272 39.6667 39.0333C39.6667 40.1394 39.2796 41.0771 38.5054 41.8463C37.731 42.6154 36.7907 43 35.6846 43ZM35.6925 41.3333C36.3461 41.3333 36.8942 41.1122 37.3367 40.67C37.7789 40.2275 38 39.6794 38 39.0258C38 38.3719 37.7789 37.8238 37.3367 37.3813C36.8942 36.939 36.3461 36.7179 35.6925 36.7179C35.0386 36.7179 34.4904 36.939 34.0479 37.3813C33.6057 37.8238 33.3846 38.3719 33.3846 39.0258C33.3846 39.6794 33.6057 40.2275 34.0479 40.67C34.4904 41.1122 35.0386 41.3333 35.6925 41.3333ZM16.9425 30.3075C17.6053 30.3075 18.1608 30.0864 18.6092 29.6442C19.0578 29.2019 19.2821 28.6539 19.2821 28C19.2821 27.3461 19.0578 26.7981 18.6092 26.3558C18.1608 25.9136 17.6053 25.6925 16.9425 25.6925C16.2975 25.6925 15.7569 25.9136 15.3208 26.3558C14.8847 26.7981 14.6667 27.3461 14.6667 28C14.6667 28.6539 14.8847 29.2019 15.3208 29.6442C15.7569 30.0864 16.2975 30.3075 16.9425 30.3075ZM35.6925 19.2821C36.3461 19.2821 36.8942 19.061 37.3367 18.6187C37.7789 18.1762 38 17.6281 38 16.9742C38 16.3206 37.7789 15.7725 37.3367 15.33C36.8942 14.8878 36.3461 14.6667 35.6925 14.6667C35.0386 14.6667 34.4904 14.8878 34.0479 15.33C33.6057 15.7725 33.3846 16.3206 33.3846 16.9742C33.3846 17.6281 33.6057 18.1762 34.0479 18.6187C34.4904 19.061 35.0386 19.2821 35.6925 19.2821Z" fill="white"/>
</svg>
