<svg width="74" height="74" viewBox="0 0 74 74" fill="none" xmlns="http://www.w3.org/2000/svg">
<mask id="mask0_3236_1644" style="mask-type:luminance" maskUnits="userSpaceOnUse" x="5" y="8" width="64" height="41">
<path d="M5.5498 8.7875H68.4498V48.5493H5.5498V8.7875Z" fill="white"/>
</mask>
<g mask="url(#mask0_3236_1644)">
<path d="M66.2077 32.5293L41.0467 33.5474C39.9947 33.5463 39.4405 33.3083 38.9673 32.9445C38.7602 32.7852 38.5683 32.6016 38.3546 32.3972C38.319 32.3631 38.2828 32.3285 38.2458 32.2934C37.9882 32.0482 37.6972 31.78 37.3222 31.5047L37.3222 31.5046C35.5901 30.2339 32.6477 28.7755 29.0776 28.7755C27.2546 28.7755 24.7093 29.139 22.6159 30.0902C20.5234 31.041 18.8564 32.5931 18.8564 34.9777C18.8564 37.3184 20.4761 38.8708 22.546 39.8326C24.6166 40.7948 27.1622 41.1799 29.0776 41.1799C30.704 41.1799 32.5903 40.7912 34.3209 40.1103C36.0505 39.4299 37.6342 38.4538 38.648 37.2719C38.9319 36.9424 39.3525 36.7255 39.7978 36.5911C40.2415 36.4573 40.7007 36.4082 41.0521 36.408C41.0527 36.408 41.0533 36.408 41.0539 36.408L41.055 36.4081L41.0686 36.4086L41.1224 36.4104L41.3325 36.4176L42.1311 36.445L44.9918 36.5429C47.3651 36.624 50.5437 36.7325 53.7649 36.8421C59.4065 37.034 65.1799 37.2292 66.9858 37.2859L67.1634 41.1507C67.1633 42.8798 67.0615 44.8435 66.7232 46.4774M66.2077 32.5293L67.9619 36.7012L68.0614 36.6915C68.0614 36.6916 68.0614 36.6918 68.0614 36.692C68.2846 38.9818 68.456 43.4984 67.8019 46.702L67.8018 46.7023C67.7659 46.8749 67.6712 46.9975 67.5472 47.0679C67.4254 47.137 67.2822 47.1521 67.1512 47.1247C67.0203 47.0974 66.895 47.0263 66.8109 46.9143C66.7254 46.8002 66.6873 46.65 66.7232 46.4774M66.2077 32.5293C62.8668 19.4581 51.0132 9.78613 36.898 9.79137H36.898C19.4321 9.79137 5.59206 24.5375 6.70895 41.9978L37.1684 43.1317L37.1692 43.1317C37.6782 43.1546 38.1844 42.9774 38.7066 42.6897C39.1662 42.4366 39.6294 42.103 40.1116 41.7558C40.1781 41.708 40.245 41.6598 40.3122 41.6116C41.413 40.8224 42.6185 40.0104 44.0243 40.0727L44.0252 40.0727L58.118 40.8256L58.1183 40.8257C58.2937 40.8355 58.4287 40.911 58.5166 41.023C58.6029 41.1329 58.6394 41.2721 58.6322 41.4056C58.625 41.5391 58.5739 41.6736 58.4762 41.7738C58.3767 41.8757 58.2343 41.9363 58.0585 41.9275L58.0582 41.9274L43.9785 41.1712L43.8998 41.1712C43.8997 41.1712 43.8996 41.1712 43.8995 41.1712C43.2829 41.178 42.5876 41.4655 41.9205 41.8514C41.2556 42.236 40.6315 42.7105 40.1587 43.0772L40.1586 43.0772C39.3454 43.7071 38.7342 44.0036 38.0912 44.1307C37.5179 44.244 36.9235 44.2209 36.1527 44.191C36.0669 44.1877 35.979 44.1843 35.8887 44.181L35.8886 44.181L7.47657 43.1262L7.47646 43.1262C7.2752 43.1185 7.09164 43.1159 6.92403 43.1136C6.86329 43.1128 6.80464 43.1119 6.748 43.1109C6.53717 43.1071 6.35238 43.1005 6.19962 43.0776C6.04798 43.0548 5.91412 43.0142 5.8149 42.9324C5.71109 42.8467 5.65782 42.7267 5.6466 42.5741M66.2077 32.5293L5.6466 42.5741M66.7232 46.4774C66.7232 46.4774 66.7232 46.4774 66.7232 46.4774L66.8211 46.4977L66.7232 46.4774ZM5.6466 42.5741C4.18549 24.2972 18.5962 8.68753 36.898 8.68753C51.7613 8.68753 64.2087 19.0329 67.4379 32.9171L5.6466 42.5741ZM54.5597 27.6435L54.5595 27.6431C50.6935 22.149 44.3106 18.563 37.0822 18.563C25.4675 18.563 16.0101 27.8405 15.7306 39.3887C15.7306 39.3887 15.7306 39.3887 15.7306 39.3888L15.6306 39.3863L54.5597 27.6435ZM54.5597 27.6435C54.661 27.786 54.7966 27.8593 54.9378 27.8736M54.5597 27.6435L54.9378 27.8736M6.61015 46.7977L6.60982 46.7977C6.30694 46.8084 6.05237 46.5704 6.03953 46.2685L6.03949 46.2676C6.03399 46.1031 6.07719 45.9719 6.17268 45.8755C6.26478 45.7826 6.39329 45.735 6.53209 45.7082C6.67168 45.6814 6.83484 45.6734 7.00767 45.67C7.07328 45.6687 7.13991 45.668 7.20783 45.6673C7.32253 45.6662 7.44093 45.6651 7.56441 45.6607C7.56443 45.6607 7.56445 45.6607 7.56447 45.6607L35.5831 44.5778L35.5832 44.5778C36.4686 44.5444 37.0247 44.5199 37.1 44.5148L37.1003 44.5148C38.4092 44.4296 39.5303 45.2112 40.6029 45.988C40.6432 46.0172 40.6834 46.0464 40.7236 46.0756C41.223 46.4379 41.7144 46.7944 42.2193 47.0698C42.7635 47.3667 43.3161 47.565 43.8997 47.5736H43.9786L58.0582 46.8155L58.0585 46.8155C58.2343 46.8067 58.3767 46.8673 58.4762 46.9691C58.5739 47.0692 58.625 47.2036 58.6322 47.3369C58.6394 47.4702 58.6029 47.6092 58.5164 47.7188C58.4284 47.8302 58.2933 47.9049 58.118 47.9138L58.1177 47.9138M6.61015 46.7977L58.1127 47.814L58.1177 47.9138M6.61015 46.7977L37.1686 45.6131L37.1695 45.613C37.677 45.5888 38.1827 45.7651 38.705 46.0521C39.1656 46.3052 39.6303 46.6393 40.1141 46.9872C40.1796 47.0342 40.2454 47.0816 40.3116 47.129C41.4134 47.9179 42.6202 48.7308 44.0241 48.6703L44.0252 48.6702L58.1177 47.9138M6.61015 46.7977L58.1177 47.9138M54.9378 27.8736C55.0765 27.8877 55.2136 27.8444 55.3227 27.7676M54.9378 27.8736L55.3227 27.7676M55.3227 27.7676C55.4318 27.6908 55.5188 27.5766 55.5518 27.4412M55.3227 27.7676L55.5518 27.4412M55.5518 27.4412C55.5855 27.3033 55.5612 27.1512 55.46 27.0083L55.5518 27.4412ZM67.5249 36.2993L67.5282 36.1993L67.5273 36.1993C67.527 36.1993 67.5267 36.1993 67.5264 36.1993L67.5249 36.2993ZM42.1683 35.3446C42.1683 35.3446 42.1682 35.3446 42.1682 35.3446L42.1648 35.4446L42.1683 35.3446ZM66.9153 33.6017C66.9158 33.6017 66.9163 33.6017 66.9168 33.6017L66.9182 33.6017L66.9141 33.5018L66.9153 33.6017ZM42.1444 34.602L42.1402 34.5021L42.1443 34.602L42.1444 34.602ZM37.5198 34.3288L37.5197 34.3286C35.9062 32.3375 32.476 30.2269 28.781 30.2269C27.5178 30.2269 26.1406 30.4484 24.678 30.9966C24.5139 31.0571 24.4076 31.1686 24.3571 31.3011C24.3074 31.4313 24.314 31.5748 24.3604 31.6999C24.4069 31.8251 24.4956 31.9383 24.6185 32.005C24.7437 32.0729 24.8977 32.0888 25.063 32.0285L25.0636 32.0282C29.4337 30.4029 33.7895 31.8394 36.5377 34.8763C36.7191 35.0769 36.8938 35.1858 37.0561 35.2157C37.2231 35.2466 37.3647 35.1915 37.4648 35.0918C37.5622 34.9948 37.6181 34.8586 37.6301 34.7231C37.6421 34.5874 37.611 34.4417 37.5198 34.3288ZM55.7629 29.5556L55.7631 29.556C56.1352 30.2233 56.4687 30.9044 56.762 31.6096L56.7625 31.6108C56.8318 31.7718 56.949 31.8725 57.0842 31.9167C57.217 31.9602 57.3603 31.9471 57.4833 31.8953C57.6063 31.8434 57.7155 31.7499 57.7761 31.6243C57.8378 31.4964 57.8456 31.3424 57.7765 31.181C57.4645 30.4408 57.1137 29.7199 56.7296 29.0221L56.7292 29.0214C56.643 28.8677 56.5158 28.779 56.3764 28.7487C56.2395 28.7189 56.0982 28.7469 55.9812 28.8117C55.8642 28.8765 55.7656 28.9814 55.7184 29.113C55.6702 29.247 55.6781 29.4016 55.7629 29.5556ZM15.7763 12.8926H14.9067C14.9082 12.8116 14.9113 12.7308 14.9143 12.651C14.9155 12.619 14.9167 12.587 14.9178 12.5553C14.9227 12.4142 14.9255 12.2763 14.9155 12.1559C14.9057 12.0378 14.8828 11.9222 14.8262 11.8343C14.7642 11.7379 14.6674 11.6834 14.539 11.6834C14.411 11.6834 14.3148 11.7383 14.2535 11.8347C14.1976 11.9226 14.1751 12.038 14.1655 12.1561C14.1558 12.2764 14.1587 12.4142 14.1636 12.5554C14.1647 12.5864 14.1659 12.6175 14.1671 12.6488C14.1701 12.729 14.1732 12.8101 14.1747 12.8914C14.1001 12.8898 14.0255 12.8867 13.9515 12.8836C13.9228 12.8825 13.8943 12.8813 13.8659 12.8802C13.7329 12.8751 13.6022 12.8719 13.4877 12.8815C13.3754 12.8909 13.2642 12.9134 13.1792 12.9701C13.0861 13.0322 13.035 13.1283 13.035 13.2541C13.035 13.3798 13.0861 13.4759 13.1788 13.5385C13.2636 13.5958 13.3746 13.6191 13.4871 13.6292C13.6017 13.6395 13.7325 13.637 13.8655 13.6324C13.8972 13.6313 13.9292 13.6301 13.9612 13.6288C14.032 13.6261 14.1033 13.6234 14.1747 13.6219C14.1732 13.7025 14.1701 13.783 14.1671 13.8626C14.1659 13.8941 14.1647 13.9254 14.1636 13.9565C14.1587 14.0975 14.1558 14.2354 14.1655 14.3559C14.1751 14.4742 14.1976 14.5899 14.2534 14.678C14.3146 14.7746 14.4107 14.83 14.539 14.83C14.6677 14.83 14.7644 14.775 14.8263 14.6785C14.8828 14.5903 14.9057 14.4745 14.9155 14.3561C14.9255 14.2355 14.9227 14.0976 14.9178 13.9566C14.9167 13.9247 14.9155 13.8927 14.9143 13.8605C14.9113 13.7815 14.9083 13.7017 14.9068 13.6218C14.991 13.6234 15.075 13.6265 15.158 13.6296C15.1899 13.6308 15.2217 13.632 15.2533 13.6331C15.3977 13.6381 15.5385 13.6411 15.6614 13.6313C15.782 13.6216 15.8995 13.5988 15.9889 13.5425C16.0868 13.4808 16.143 13.3838 16.143 13.2541C16.143 13.0506 15.9746 12.8926 15.7763 12.8926ZM67.5161 22.733H66.6448C66.6464 22.652 66.6495 22.571 66.6526 22.4909C66.6538 22.4596 66.655 22.4284 66.6561 22.3973C66.6611 22.2563 66.6641 22.1184 66.6542 21.9978C66.6445 21.8794 66.6217 21.7635 66.565 21.6753C66.503 21.5786 66.406 21.5238 66.277 21.5238C66.1483 21.5238 66.0516 21.5788 65.9898 21.6753C65.9332 21.7635 65.9103 21.8793 65.9005 21.9977C65.8906 22.1183 65.8933 22.2562 65.8982 22.3972C65.8993 22.4291 65.9005 22.4612 65.9017 22.4934C65.9047 22.5723 65.9077 22.6521 65.9093 22.7319C65.8379 22.7304 65.7665 22.7277 65.6957 22.725C65.6637 22.7237 65.6318 22.7225 65.6 22.7214C65.467 22.7168 65.3363 22.7143 65.2217 22.7246C65.1092 22.7347 64.9981 22.758 64.9133 22.8153C64.8206 22.8779 64.7695 22.974 64.7695 23.0997C64.7695 23.2248 64.8212 23.32 64.914 23.3816C64.9987 23.4379 65.1097 23.4606 65.222 23.4703C65.3364 23.4802 65.4671 23.4776 65.6001 23.4729C65.6308 23.4718 65.6617 23.4706 65.6927 23.4694C65.7645 23.4666 65.8369 23.4638 65.9093 23.4623C65.9077 23.5429 65.9047 23.6233 65.9017 23.7027C65.9005 23.7348 65.8993 23.7667 65.8982 23.7985C65.8933 23.9396 65.8906 24.0775 65.9005 24.1979C65.9103 24.316 65.9333 24.4316 65.9899 24.5195C66.0518 24.6159 66.1486 24.6704 66.277 24.6704C66.4058 24.6704 66.5028 24.616 66.5649 24.5196C66.6217 24.4316 66.6445 24.316 66.6542 24.1978C66.6641 24.0774 66.6611 23.9395 66.6561 23.7984C66.655 23.7674 66.6538 23.7363 66.6526 23.705C66.6495 23.6248 66.6464 23.5436 66.6448 23.4623C66.731 23.4639 66.817 23.4673 66.9019 23.4707C66.9311 23.4719 66.9602 23.473 66.989 23.4741C67.1329 23.4795 67.2734 23.4829 67.3959 23.4737C67.5163 23.4646 67.6336 23.4425 67.723 23.3869C67.8211 23.3259 67.8776 23.2293 67.8776 23.0997C67.8776 22.9015 67.7196 22.733 67.5161 22.733ZM43.6074 45.9764H57.9617C58.1373 45.9764 58.2761 45.9084 58.3697 45.8013C58.4617 45.6961 58.5053 45.559 58.5053 45.4254C58.5053 45.2918 58.4617 45.1546 58.3697 45.0495C58.2761 44.9423 58.1373 44.8743 57.9617 44.8743H43.6074C43.4315 44.8743 43.2925 44.9423 43.1986 45.0494C43.1063 45.1545 43.0625 45.2917 43.0625 45.4254C43.0625 45.5591 43.1063 45.6962 43.1986 45.8014C43.2925 45.9085 43.4315 45.9764 43.6074 45.9764ZM43.6074 43.8704H57.9617C58.1374 43.8704 58.2762 43.8022 58.3698 43.6949C58.4617 43.5896 58.5053 43.4523 58.5053 43.3185C58.5053 43.1847 58.4617 43.0474 58.3698 42.942C58.2762 42.8347 58.1374 42.7666 57.9617 42.7666H43.6074C43.4314 42.7666 43.2924 42.8346 43.1985 42.9419C43.1063 43.0473 43.0625 43.1846 43.0625 43.3185C43.0625 43.4523 43.1063 43.5897 43.1985 43.695C43.2924 43.8023 43.4314 43.8704 43.6074 43.8704Z" fill="#828282" stroke="#828282" stroke-width="0.2"/>
</g>
<path d="M4.96222 54.6535H8.08215V62.9803H4.96222V61.9502H7.1338V55.6836H4.96222V54.6535ZM4.43994 54.6535H5.38829V64.1105H4.43994V54.6535ZM10.1163 55.5405H16.3836V56.5563H10.1163V55.5405ZM9.81392 58.5021H14.7481V59.5036H9.81392V58.5021ZM10.6936 53.3372L11.7244 53.5805C11.1471 55.6264 10.2125 57.5579 9.1542 58.8169C8.96178 58.6309 8.54946 58.2732 8.30206 58.1158C9.36036 56.9713 10.2125 55.1829 10.6936 53.3372ZM14.5969 58.5021H14.7618L15.0092 58.4592L15.7102 58.8598C15.669 58.9313 15.614 59.0029 15.5453 59.0744C10.3774 63.4667 10.0201 64.2107 10.0201 64.6828C10.0201 65.0691 10.4187 65.2265 11.0372 65.2265H14.9268C15.5178 65.2265 15.6689 64.969 15.7239 63.0804C15.9988 63.2378 16.3699 63.3809 16.6723 63.4381C16.5348 65.8846 16.1088 66.2852 14.8718 66.2852H11.0784C9.60776 66.2852 8.94804 65.7416 8.94804 64.8259C8.94804 64.0676 9.18169 63.152 14.5969 58.5021Z" fill="#333333"/>
<path d="M25.5098 53.28L26.4307 53.652C25.3586 54.9826 23.6818 56.213 22.2112 56.9856C22.0463 56.7996 21.6752 56.399 21.4415 56.2273C22.9534 55.5405 24.5477 54.4532 25.5098 53.28ZM32.3681 53.8666L33.1378 54.5676C31.7771 55.1113 29.7567 55.5548 28.0112 55.841C27.97 55.6264 27.8463 55.2973 27.7226 55.097C29.3994 54.7823 31.3098 54.3244 32.3681 53.8666ZM27.3927 53.466H28.3823V56.4276C28.3823 56.8282 28.5198 56.914 29.3444 56.914C29.7293 56.914 31.7222 56.914 32.2444 56.914C32.8629 56.914 32.9729 56.7423 33.0279 55.6836C33.2615 55.841 33.6601 55.9841 33.935 56.0413C33.8113 57.4577 33.4952 57.8154 32.3269 57.8154C31.9833 57.8154 29.6193 57.8154 29.2894 57.8154C27.7776 57.8154 27.3927 57.5435 27.3927 56.4276V53.466ZM24.4652 60.8199V61.7928H31.3923V60.8199H24.4652ZM24.4652 62.4938V63.4953H31.3923V62.4938H24.4652ZM24.4652 59.1459V60.1188H31.3923V59.1459H24.4652ZM23.4619 58.4306H32.4231V64.2107H23.4619V58.4306ZM29.0008 64.9404L29.8392 64.3967C31.3511 64.8831 33.0141 65.5127 34.0037 65.9991L32.8629 66.5428C31.9971 66.0706 30.4989 65.4554 29.0008 64.9404ZM25.7709 64.3681L26.7055 64.8116C25.5923 65.4983 23.8467 66.1565 22.4723 66.5571C22.3074 66.3425 21.95 65.9276 21.7164 65.7416C23.132 65.4268 24.7814 64.9261 25.7709 64.3681ZM24.1079 55.2544L24.8363 54.5104L25.0975 54.5963V58.0157H24.1079V55.2544Z" fill="#333333"/>
<path d="M45.9612 57.6437H48.82V58.4878H45.9612V57.6437ZM45.0815 61.7928H49.7133V62.5654H45.0815V61.7928ZM40.4772 53.9524H44.3256V54.8252H40.4772V53.9524ZM44.037 53.9524H44.2156L44.3943 53.9095L45.0403 54.2386C44.0095 56.6422 41.7417 58.2446 39.5151 59.0458C39.3914 58.8026 39.144 58.4306 38.9516 58.2446C41.0132 57.6008 43.1986 56.0699 44.037 54.1241V53.9524ZM46.2085 53.3372C47.1981 55.5548 49.2872 57.3003 51.8437 58.0014C51.6238 58.216 51.3626 58.588 51.2114 58.8455C48.5863 58.0014 46.4834 56.1128 45.3702 53.6091L46.2085 53.3372ZM49.0124 53.4374L49.782 53.9954C49.1086 54.6535 48.2427 55.3402 47.583 55.8124L46.9782 55.3116C47.6105 54.8252 48.5176 54.024 49.0124 53.4374ZM50.6617 54.8824L51.4176 55.4261C50.7579 56.0842 49.8645 56.771 49.191 57.2145L48.5588 56.7137C49.2185 56.2416 50.1531 55.4404 50.6617 54.8824ZM40.9033 57.7009H44.2706V61.1346H43.3498V58.545H40.9033V57.7009ZM40.5459 60.0473H41.4393C41.2469 61.1633 40.972 62.5654 40.7521 63.4524L39.8862 63.295C40.1199 62.4366 40.3948 61.0917 40.5459 60.0473ZM43.3498 62.222H44.2981C44.2981 62.222 44.2844 62.5224 44.2706 62.6512C44.0919 64.8259 43.9133 65.7416 43.5559 66.1136C43.3085 66.3568 43.0611 66.4283 42.6351 66.4712C42.2777 66.4855 41.5493 66.4712 40.7933 66.4426C40.7659 66.1565 40.6559 65.7702 40.491 65.5127C41.2606 65.5842 42.0028 65.5985 42.264 65.5985C42.5251 65.5985 42.6763 65.5842 42.7862 65.4697C43.0336 65.2265 43.1848 64.411 43.3498 62.3651V62.222ZM45.5901 57.6437H46.4834V58.774C46.4834 59.7039 46.1948 60.777 44.9716 61.5209C44.8341 61.3206 44.5043 60.9773 44.3119 60.8485C45.4114 60.2333 45.5901 59.4464 45.5901 58.7597V57.6437ZM49.4797 61.7928H49.6583L49.8233 61.7499L50.4143 61.9788C49.5072 64.6399 47.3493 65.9133 44.7517 66.5142C44.6692 66.2852 44.463 65.9276 44.2981 65.7273C46.6621 65.2694 48.7237 64.0962 49.4797 61.9359V61.7928ZM46.3872 62.5081C47.1844 64.1678 49.0261 65.2551 51.4588 65.6128C51.2389 65.8274 50.9778 66.2423 50.8403 66.4998C48.3252 66.0134 46.4834 64.7401 45.5763 62.7371L46.3872 62.5081ZM40.9995 60.0473H43.6934V60.8914H40.8621L40.9995 60.0473ZM40.5872 62.222H43.6109V63.0518H40.436L40.5872 62.222ZM48.3389 57.6437H49.246V59.8756C49.246 60.0759 49.246 60.219 49.301 60.2619C49.356 60.3048 49.4247 60.3048 49.5346 60.3048C49.6309 60.3048 49.8095 60.3048 49.9332 60.3048C50.0569 60.3048 50.1944 60.3048 50.2356 60.2905C50.2906 60.2619 50.3593 60.1904 50.4005 60.0902C50.428 59.9615 50.4418 59.6896 50.4555 59.3319C50.6342 59.4893 50.964 59.661 51.2114 59.7325C51.1839 60.1045 51.1427 60.5194 51.0465 60.6911C50.9778 60.8485 50.8129 60.963 50.6342 61.0202C50.4967 61.0774 50.2219 61.0917 50.0294 61.0917C49.8783 61.0917 49.4934 61.0917 49.356 61.0917C49.0811 61.0917 48.7787 61.0345 48.6 60.8771C48.4076 60.6911 48.3389 60.4765 48.3389 59.7898V57.6437ZM40.1061 55.655L40.7109 55.0684C41.3431 55.4547 42.1265 56.0556 42.4976 56.4705L41.8654 57.1286C41.508 56.6851 40.7521 56.0699 40.1061 55.655Z" fill="#333333"/>
<path d="M56.8466 54.0812H61.5746V55.0827H56.8466V54.0812ZM57.0115 58.1301H61.4371V59.1316H57.0115V58.1301ZM56.5854 63.2235C57.8636 62.8944 59.7878 62.3365 61.6433 61.7785L61.7807 62.7371C60.049 63.2807 58.2072 63.8387 56.8603 64.2679L56.5854 63.2235ZM63.1689 57.1716V58.6166H67.677V57.1716H63.1689ZM63.1689 59.4893V60.9343H67.677V59.4893H63.1689ZM63.1689 54.8824V56.3131H67.677V54.8824H63.1689ZM62.2068 53.9667H68.6803V61.8643H62.2068V53.9667ZM65.8078 61.4208H66.7974V65.0548C66.7974 65.4125 66.8661 65.4697 67.1959 65.4697C67.3471 65.4697 68.0618 65.4697 68.268 65.4697C68.5841 65.4697 68.6391 65.2551 68.6803 63.7815C68.8865 63.9532 69.2988 64.1249 69.5599 64.1821C69.4775 65.9562 69.2163 66.414 68.3779 66.414C68.1718 66.414 67.2372 66.414 67.0447 66.414C66.0414 66.414 65.8078 66.0992 65.8078 65.0691V61.4208ZM63.4713 61.6354H64.4746C64.2272 64.0533 63.5262 65.6986 60.7499 66.6C60.6399 66.3282 60.3651 65.9133 60.1589 65.713C62.6878 64.9976 63.2513 63.6241 63.4713 61.6354ZM58.757 54.4818H59.7466V62.9087L58.757 63.0804V54.4818Z" fill="#333333"/>
</svg>
