<svg width="74" height="74" viewBox="0 0 74 74" fill="none" xmlns="http://www.w3.org/2000/svg">
<mask id="mask0_2715_2950" style="mask-type:luminance" maskUnits="userSpaceOnUse" x="5" y="8" width="64" height="41">
<path d="M5.55005 8.78748H68.45V48.5493H5.55005V8.78748Z" fill="white"/>
</mask>
<g mask="url(#mask0_2715_2950)">
<path d="M66.208 32.5293L41.0469 33.5474C39.995 33.5463 39.4407 33.3083 38.9676 32.9444C38.7605 32.7851 38.5685 32.6016 38.3548 32.3971C38.3192 32.3631 38.2831 32.3285 38.2461 32.2933C37.9885 32.0481 37.6975 31.78 37.3224 31.5046L37.3224 31.5046C35.5903 30.2338 32.648 28.7755 29.0778 28.7755C27.2548 28.7755 24.7096 29.139 22.6161 30.0902C20.5236 31.041 18.8566 32.5931 18.8566 34.9777C18.8566 37.3184 20.4764 38.8707 22.5463 39.8326C24.6169 40.7948 27.1624 41.1799 29.0778 41.1799C30.7042 41.1799 32.5906 40.7911 34.3211 40.1103C36.0507 39.4298 37.6345 38.4538 38.6483 37.2718C38.9322 36.9424 39.3528 36.7254 39.7981 36.5911C40.2417 36.4572 40.7009 36.4081 41.0524 36.408C41.053 36.408 41.0535 36.408 41.0541 36.408L41.0552 36.4081L41.0689 36.4086L41.1227 36.4104L41.3328 36.4176L42.1313 36.4449L44.992 36.5428C47.3653 36.624 50.5439 36.7325 53.7652 36.8421C59.4068 37.034 65.1801 37.2291 66.986 37.2859L67.1636 41.1507C67.1635 42.8798 67.0617 44.8435 66.7234 46.4774M66.208 32.5293L67.9621 36.7011L68.0616 36.6914C68.0617 36.6916 68.0617 36.6918 68.0617 36.692C68.2848 38.9817 68.4562 43.4984 67.8021 46.7019L67.802 46.7023C67.7662 46.8749 67.6714 46.9975 67.5474 47.0679C67.4257 47.137 67.2824 47.152 67.1515 47.1247C67.0205 47.0973 66.8952 47.0262 66.8112 46.9142C66.7256 46.8002 66.6876 46.6499 66.7234 46.4774M66.208 32.5293C62.8671 19.4581 51.0135 9.78608 36.8982 9.79131H36.8982C19.4323 9.79131 5.5923 24.5374 6.70919 41.9977L37.1687 43.1316L37.1695 43.1316C37.6784 43.1546 38.1846 42.9774 38.7069 42.6897C39.1665 42.4365 39.6297 42.103 40.1119 41.7558C40.1784 41.7079 40.2452 41.6598 40.3125 41.6116C41.4132 40.8224 42.6188 40.0103 44.0245 40.0726L44.0254 40.0727L58.1183 40.8256L58.1185 40.8256C58.2939 40.8355 58.4289 40.911 58.5168 41.0229C58.6032 41.1329 58.6396 41.2721 58.6324 41.4055C58.6253 41.539 58.5742 41.6736 58.4765 41.7737C58.377 41.8756 58.2345 41.9362 58.0588 41.9274L58.0584 41.9274L43.9787 41.1711L43.9001 41.1711C43.9 41.1711 43.8998 41.1711 43.8997 41.1711C43.2831 41.1779 42.5879 41.4654 41.9207 41.8513C41.2558 42.2359 40.6318 42.7104 40.1589 43.0772L40.1588 43.0772C39.3457 43.707 38.7344 44.0036 38.0915 44.1306C37.5181 44.2439 36.9237 44.2209 36.1529 44.191C36.0672 44.1876 35.9792 44.1842 35.8889 44.1809L35.8889 44.1809L7.47681 43.1261L7.4767 43.1261C7.27544 43.1184 7.09188 43.1159 6.92428 43.1136C6.86353 43.1127 6.80488 43.1119 6.74824 43.1109C6.53741 43.1071 6.35262 43.1004 6.19987 43.0775C6.04823 43.0547 5.91436 43.0142 5.81514 42.9323C5.71134 42.8467 5.65807 42.7266 5.64685 42.574M66.208 32.5293L5.64685 42.574M66.7234 46.4774C66.7234 46.4773 66.7234 46.4773 66.7234 46.4773L66.8213 46.4976L66.7234 46.4774ZM5.64685 42.574C4.18574 24.2972 18.5964 8.68748 36.8982 8.68748C51.7615 8.68748 64.209 19.0329 67.4381 32.917L5.64685 42.574ZM54.56 27.6434L54.5597 27.6431C50.6938 22.149 44.3109 18.5629 37.0825 18.5629C25.4677 18.5629 16.0103 27.8404 15.7308 39.3886C15.7308 39.3887 15.7308 39.3887 15.7308 39.3887L15.6308 39.3863L54.56 27.6434ZM54.56 27.6434C54.6612 27.786 54.7968 27.8593 54.9381 27.8736M54.56 27.6434L54.9381 27.8736M6.61039 46.7976L6.61006 46.7977C6.30719 46.8084 6.05262 46.5703 6.03977 46.2685L6.03973 46.2676C6.03424 46.1031 6.07743 45.9718 6.17292 45.8755C6.26503 45.7826 6.39354 45.7349 6.53234 45.7082C6.67192 45.6813 6.83508 45.6733 7.00791 45.6699C7.07353 45.6686 7.14015 45.6679 7.20808 45.6673C7.32278 45.6662 7.44118 45.665 7.56465 45.6606C7.56467 45.6606 7.56469 45.6606 7.56471 45.6606L35.5833 44.5778L35.5834 44.5778C36.4689 44.5444 37.025 44.5199 37.1003 44.5147L37.1006 44.5147C38.4094 44.4295 39.5306 45.2111 40.6031 45.988C40.6434 46.0172 40.6837 46.0464 40.7239 46.0755C41.2233 46.4378 41.7147 46.7943 42.2195 47.0697C42.7638 47.3666 43.3163 47.5649 43.8999 47.5735H43.9788L58.0584 46.8155L58.0588 46.8155C58.2345 46.8066 58.3769 46.8672 58.4764 46.9691C58.5741 47.0692 58.6253 47.2036 58.6324 47.3369C58.6396 47.4702 58.6031 47.6092 58.5167 47.7187C58.4286 47.8302 58.2935 47.9048 58.1183 47.9138L58.118 47.9138M6.61039 46.7976L58.1129 47.8139L58.118 47.9138M6.61039 46.7976L37.1688 45.613L37.1697 45.613C37.6773 45.5888 38.183 45.765 38.7052 46.052C39.1658 46.3051 39.6305 46.6392 40.1143 46.9871C40.1798 47.0342 40.2456 47.0815 40.3119 47.1289C41.4136 47.9179 42.6205 48.7307 44.0244 48.6702L44.0254 48.6702L58.118 47.9138M6.61039 46.7976L58.118 47.9138M54.9381 27.8736C55.0768 27.8877 55.2138 27.8443 55.3229 27.7676M54.9381 27.8736L55.3229 27.7676M55.3229 27.7676C55.432 27.6908 55.519 27.5765 55.5521 27.4412M55.3229 27.7676L55.5521 27.4412M55.5521 27.4412C55.5858 27.3033 55.5614 27.1512 55.4602 27.0083L55.5521 27.4412ZM67.5251 36.2992L67.5285 36.1993L67.5276 36.1992C67.5273 36.1992 67.527 36.1992 67.5266 36.1992L67.5251 36.2992ZM42.1685 35.3446C42.1685 35.3446 42.1684 35.3446 42.1684 35.3446L42.165 35.4445L42.1685 35.3446ZM66.9156 33.6017C66.9161 33.6017 66.9166 33.6017 66.917 33.6017L66.9184 33.6016L66.9144 33.5017L66.9156 33.6017ZM42.1446 34.602L42.1405 34.5021L42.1445 34.602L42.1446 34.602ZM37.5201 34.3287L37.52 34.3285C35.9065 32.3374 32.4763 30.2269 28.7812 30.2269C27.518 30.2269 26.1408 30.4484 24.6783 30.9966C24.5142 31.0571 24.4079 31.1685 24.3573 31.3011C24.3076 31.4313 24.3143 31.5747 24.3607 31.6999C24.4071 31.825 24.4958 31.9383 24.6188 32.005C24.7439 32.0729 24.8979 32.0887 25.0633 32.0284L25.0638 32.0282C29.4339 30.4029 33.7898 31.8393 36.538 34.8763C36.7193 35.0769 36.894 35.1857 37.0564 35.2157C37.2234 35.2465 37.3649 35.1914 37.465 35.0918C37.5624 34.9948 37.6183 34.8585 37.6303 34.723C37.6424 34.5873 37.6112 34.4416 37.5201 34.3287ZM55.7631 29.5555L55.7634 29.556C56.1354 30.2233 56.469 30.9043 56.7622 31.6096L56.7627 31.6107C56.832 31.7717 56.9493 31.8724 57.0845 31.9167C57.2173 31.9601 57.3605 31.9471 57.4836 31.8952C57.6066 31.8433 57.7157 31.7499 57.7763 31.6243C57.8381 31.4964 57.8458 31.3423 57.7767 31.181C57.4647 30.4407 57.114 29.7199 56.7298 29.022L56.7294 29.0214C56.6432 28.8676 56.516 28.7789 56.3767 28.7486C56.2397 28.7189 56.0985 28.7469 55.9815 28.8117C55.8645 28.8765 55.7659 28.9813 55.7186 29.113C55.6705 29.247 55.6783 29.4015 55.7631 29.5555ZM15.7765 12.8925H14.907C14.9085 12.8115 14.9115 12.7308 14.9145 12.651C14.9157 12.6189 14.917 12.587 14.918 12.5553C14.9229 12.4141 14.9257 12.2763 14.9157 12.1559C14.9059 12.0377 14.883 11.9222 14.8264 11.8342C14.7644 11.7379 14.6677 11.6833 14.5392 11.6833C14.4112 11.6833 14.3151 11.7383 14.2538 11.8347C14.1979 11.9226 14.1753 12.038 14.1658 12.1561C14.156 12.2764 14.1589 12.4142 14.1639 12.5553C14.1649 12.5863 14.1661 12.6175 14.1673 12.6488C14.1703 12.7289 14.1734 12.81 14.175 12.8913C14.1003 12.8897 14.0257 12.8866 13.9517 12.8836C13.9231 12.8824 13.8945 12.8812 13.8661 12.8801C13.7332 12.875 13.6025 12.8719 13.488 12.8814C13.3756 12.8908 13.2644 12.9133 13.1794 12.9701C13.0864 13.0322 13.0352 13.1282 13.0352 13.254C13.0352 13.3797 13.0863 13.4759 13.179 13.5385C13.2638 13.5958 13.3749 13.6191 13.4874 13.6291C13.6019 13.6394 13.7327 13.6369 13.8657 13.6323C13.8975 13.6312 13.9294 13.63 13.9614 13.6288C14.0322 13.6261 14.1036 13.6234 14.1749 13.6219C14.1734 13.7024 14.1703 13.7829 14.1673 13.8626C14.1661 13.894 14.1649 13.9253 14.1639 13.9565C14.1589 14.0975 14.156 14.2354 14.1658 14.3559C14.1753 14.4742 14.1978 14.5898 14.2537 14.678C14.3149 14.7746 14.411 14.83 14.5392 14.83C14.6679 14.83 14.7646 14.775 14.8265 14.6784C14.883 14.5902 14.9059 14.4745 14.9157 14.3561C14.9257 14.2355 14.9229 14.0975 14.918 13.9565C14.9169 13.9246 14.9157 13.8926 14.9145 13.8604C14.9115 13.7814 14.9085 13.7016 14.907 13.6218C14.9912 13.6233 15.0752 13.6265 15.1582 13.6296C15.1901 13.6308 15.2219 13.632 15.2535 13.6331C15.398 13.6381 15.5388 13.641 15.6616 13.6312C15.7823 13.6215 15.8998 13.5988 15.9891 13.5424C16.0871 13.4807 16.1433 13.3837 16.1433 13.254C16.1433 13.0505 15.9748 12.8925 15.7765 12.8925ZM67.5163 22.7329H66.6451C66.6466 22.6519 66.6497 22.571 66.6528 22.4909C66.654 22.4595 66.6553 22.4283 66.6564 22.3973C66.6614 22.2563 66.6643 22.1183 66.6545 21.9977C66.6448 21.8793 66.6219 21.7635 66.5653 21.6752C66.5032 21.5785 66.4062 21.5237 66.2773 21.5237C66.1486 21.5237 66.0519 21.5787 65.99 21.6753C65.9335 21.7635 65.9106 21.8792 65.9008 21.9976C65.8908 22.1182 65.8936 22.2561 65.8985 22.3972C65.8996 22.4291 65.9008 22.4612 65.902 22.4934C65.905 22.5723 65.908 22.652 65.9095 22.7318C65.8381 22.7303 65.7668 22.7276 65.6959 22.7249C65.6639 22.7237 65.632 22.7225 65.6003 22.7214C65.4673 22.7167 65.3365 22.7143 65.2219 22.7245C65.1094 22.7346 64.9984 22.7579 64.9136 22.8152C64.8209 22.8778 64.7698 22.9739 64.7698 23.0997C64.7698 23.2247 64.8214 23.32 64.9142 23.3816C64.999 23.4378 65.1099 23.4605 65.2222 23.4702C65.3367 23.4802 65.4674 23.4775 65.6004 23.4728C65.6311 23.4717 65.6619 23.4706 65.6929 23.4694C65.7647 23.4666 65.8371 23.4638 65.9095 23.4623C65.908 23.5429 65.905 23.6232 65.902 23.7027C65.9008 23.7347 65.8996 23.7667 65.8985 23.7984C65.8936 23.9396 65.8908 24.0774 65.9008 24.1978C65.9106 24.316 65.9335 24.4315 65.9901 24.5195C66.0521 24.6158 66.1488 24.6704 66.2773 24.6704C66.406 24.6704 66.503 24.616 66.5652 24.5195C66.6219 24.4315 66.6448 24.3159 66.6545 24.1977C66.6643 24.0773 66.6614 23.9395 66.6564 23.7983C66.6553 23.7674 66.6541 23.7362 66.6529 23.7049C66.6498 23.6247 66.6466 23.5436 66.6451 23.4622C66.7312 23.4639 66.8173 23.4673 66.9022 23.4707C66.9314 23.4718 66.9604 23.473 66.9893 23.4741C67.1332 23.4794 67.2736 23.4829 67.3962 23.4736C67.5165 23.4645 67.6339 23.4425 67.7233 23.3869C67.8214 23.3258 67.8778 23.2292 67.8778 23.0997C67.8778 22.9014 67.7198 22.7329 67.5163 22.7329ZM43.6077 45.9764H57.962C58.1376 45.9764 58.2763 45.9084 58.37 45.8012C58.4619 45.6961 58.5056 45.5589 58.5056 45.4253C58.5056 45.2917 58.4619 45.1546 58.37 45.0494C58.2763 44.9423 58.1376 44.8743 57.962 44.8743H43.6077C43.4317 44.8743 43.2927 44.9422 43.1988 45.0493C43.1066 45.1545 43.0628 45.2916 43.0628 45.4253C43.0628 45.559 43.1066 45.6962 43.1988 45.8013C43.2927 45.9084 43.4317 45.9764 43.6077 45.9764ZM43.6077 43.8703H57.962C58.1376 43.8703 58.2764 43.8022 58.37 43.6949C58.4619 43.5895 58.5056 43.4522 58.5056 43.3184C58.5056 43.1846 58.4619 43.0473 58.37 42.942C58.2764 42.8347 58.1376 42.7665 57.962 42.7665H43.6077C43.4317 42.7665 43.2926 42.8346 43.1987 42.9419C43.1066 43.0472 43.0628 43.1846 43.0628 43.3184C43.0628 43.4523 43.1066 43.5896 43.1987 43.695C43.2926 43.8023 43.4317 43.8703 43.6077 43.8703Z" fill="#828282" stroke="#828282" stroke-width="0.2"/>
</g>
<path d="M4.96222 54.6535H8.08215V62.9803H4.96222V61.9502H7.1338V55.6836H4.96222V54.6535ZM4.43994 54.6535H5.38829V64.1106H4.43994V54.6535ZM10.1163 55.5406H16.3836V56.5564H10.1163V55.5406ZM9.81392 58.5022H14.7481V59.5037H9.81392V58.5022ZM10.6936 53.3373L11.7244 53.5805C11.1471 55.6264 10.2125 57.5579 9.1542 58.8169C8.96178 58.6309 8.54946 58.2732 8.30206 58.1159C9.36036 56.9713 10.2125 55.1829 10.6936 53.3373ZM14.5969 58.5022H14.7618L15.0092 58.4592L15.7102 58.8598C15.669 58.9314 15.614 59.0029 15.5453 59.0744C10.3774 63.4668 10.0201 64.2107 10.0201 64.6829C10.0201 65.0692 10.4187 65.2265 11.0372 65.2265H14.9268C15.5178 65.2265 15.6689 64.969 15.7239 63.0805C15.9988 63.2378 16.3699 63.3809 16.6723 63.4381C16.5348 65.8847 16.1088 66.2853 14.8718 66.2853H11.0784C9.60776 66.2853 8.94804 65.7416 8.94804 64.8259C8.94804 64.0677 9.18169 63.152 14.5969 58.5022Z" fill="#333333"/>
<path d="M25.5098 53.28L26.4307 53.652C25.3586 54.9826 23.6818 56.213 22.2112 56.9856C22.0463 56.7996 21.6752 56.399 21.4415 56.2273C22.9534 55.5406 24.5477 54.4532 25.5098 53.28ZM32.3681 53.8666L33.1378 54.5677C31.7771 55.1114 29.7567 55.5549 28.0112 55.841C27.97 55.6264 27.8463 55.2973 27.7226 55.097C29.3994 54.7823 31.3098 54.3245 32.3681 53.8666ZM27.3927 53.466H28.3823V56.4276C28.3823 56.8282 28.5198 56.9141 29.3444 56.9141C29.7293 56.9141 31.7222 56.9141 32.2444 56.9141C32.8629 56.9141 32.9729 56.7424 33.0279 55.6836C33.2615 55.841 33.6601 55.9841 33.935 56.0413C33.8113 57.4577 33.4952 57.8154 32.3269 57.8154C31.9833 57.8154 29.6193 57.8154 29.2894 57.8154C27.7776 57.8154 27.3927 57.5436 27.3927 56.4276V53.466ZM24.4652 60.8199V61.7928H31.3923V60.8199H24.4652ZM24.4652 62.4939V63.4954H31.3923V62.4939H24.4652ZM24.4652 59.146V60.1189H31.3923V59.146H24.4652ZM23.4619 58.4306H32.4231V64.2107H23.4619V58.4306ZM29.0008 64.9404L29.8392 64.3967C31.3511 64.8832 33.0141 65.5127 34.0037 65.9991L32.8629 66.5428C31.9971 66.0707 30.4989 65.4555 29.0008 64.9404ZM25.7709 64.3681L26.7055 64.8116C25.5923 65.4984 23.8467 66.1565 22.4723 66.5571C22.3074 66.3425 21.95 65.9276 21.7164 65.7416C23.132 65.4268 24.7814 64.9261 25.7709 64.3681ZM24.1079 55.2544L24.8363 54.5104L25.0975 54.5963V58.0157H24.1079V55.2544Z" fill="#333333"/>
<path d="M45.9612 57.6437H48.82V58.4878H45.9612V57.6437ZM45.0815 61.7928H49.7133V62.5654H45.0815V61.7928ZM40.4772 53.9525H44.3256V54.8252H40.4772V53.9525ZM44.037 53.9525H44.2156L44.3943 53.9095L45.0403 54.2386C44.0095 56.6422 41.7417 58.2446 39.5151 59.0458C39.3914 58.8026 39.144 58.4306 38.9516 58.2446C41.0132 57.6008 43.1986 56.0699 44.037 54.1242V53.9525ZM46.2085 53.3373C47.1981 55.5549 49.2872 57.3004 51.8437 58.0014C51.6238 58.216 51.3626 58.588 51.2114 58.8455C48.5863 58.0014 46.4834 56.1129 45.3702 53.6091L46.2085 53.3373ZM49.0124 53.4374L49.782 53.9954C49.1086 54.6535 48.2427 55.3403 47.583 55.8124L46.9782 55.3117C47.6105 54.8252 48.5176 54.024 49.0124 53.4374ZM50.6617 54.8824L51.4176 55.4261C50.7579 56.0842 49.8645 56.771 49.191 57.2145L48.5588 56.7138C49.2185 56.2416 50.1531 55.4404 50.6617 54.8824ZM40.9033 57.701H44.2706V61.1347H43.3498V58.5451H40.9033V57.701ZM40.5459 60.0473H41.4393C41.2469 61.1633 40.972 62.5654 40.7521 63.4524L39.8862 63.2951C40.1199 62.4366 40.3948 61.0918 40.5459 60.0473ZM43.3498 62.222H44.2981C44.2981 62.222 44.2844 62.5225 44.2706 62.6512C44.0919 64.8259 43.9133 65.7416 43.5559 66.1136C43.3085 66.3568 43.0611 66.4283 42.6351 66.4713C42.2777 66.4856 41.5493 66.4713 40.7933 66.4427C40.7659 66.1565 40.6559 65.7702 40.491 65.5127C41.2606 65.5842 42.0028 65.5985 42.264 65.5985C42.5251 65.5985 42.6763 65.5842 42.7862 65.4698C43.0336 65.2265 43.1848 64.411 43.3498 62.3651V62.222ZM45.5901 57.6437H46.4834V58.774C46.4834 59.704 46.1948 60.777 44.9716 61.521C44.8341 61.3207 44.5043 60.9773 44.3119 60.8485C45.4114 60.2333 45.5901 59.4464 45.5901 58.7597V57.6437ZM49.4797 61.7928H49.6583L49.8233 61.7499L50.4143 61.9788C49.5072 64.6399 47.3493 65.9133 44.7517 66.5142C44.6692 66.2853 44.463 65.9276 44.2981 65.7273C46.6621 65.2695 48.7237 64.0963 49.4797 61.9359V61.7928ZM46.3872 62.5082C47.1844 64.1678 49.0261 65.2552 51.4588 65.6128C51.2389 65.8274 50.9778 66.2423 50.8403 66.4999C48.3252 66.0134 46.4834 64.7401 45.5763 62.7371L46.3872 62.5082ZM40.9995 60.0473H43.6934V60.8915H40.8621L40.9995 60.0473ZM40.5872 62.222H43.6109V63.0518H40.436L40.5872 62.222ZM48.3389 57.6437H49.246V59.8756C49.246 60.0759 49.246 60.219 49.301 60.2619C49.356 60.3049 49.4247 60.3049 49.5346 60.3049C49.6309 60.3049 49.8095 60.3049 49.9332 60.3049C50.0569 60.3049 50.1944 60.3049 50.2356 60.2906C50.2906 60.2619 50.3593 60.1904 50.4005 60.0903C50.428 59.9615 50.4418 59.6897 50.4555 59.332C50.6342 59.4894 50.964 59.661 51.2114 59.7326C51.1839 60.1046 51.1427 60.5195 51.0465 60.6912C50.9778 60.8485 50.8129 60.963 50.6342 61.0202C50.4967 61.0775 50.2219 61.0918 50.0294 61.0918C49.8783 61.0918 49.4934 61.0918 49.356 61.0918C49.0811 61.0918 48.7787 61.0345 48.6 60.8772C48.4076 60.6912 48.3389 60.4765 48.3389 59.7898V57.6437ZM40.1061 55.655L40.7109 55.0684C41.3431 55.4547 42.1265 56.0556 42.4976 56.4705L41.8654 57.1287C41.508 56.6851 40.7521 56.0699 40.1061 55.655Z" fill="#333333"/>
<path d="M56.8466 54.0812H61.5746V55.0827H56.8466V54.0812ZM57.0115 58.1302H61.4371V59.1317H57.0115V58.1302ZM56.5854 63.2235C57.8636 62.8945 59.7878 62.3365 61.6433 61.7785L61.7807 62.7371C60.049 63.2808 58.2072 63.8387 56.8603 64.268L56.5854 63.2235ZM63.1689 57.1716V58.6166H67.677V57.1716H63.1689ZM63.1689 59.4894V60.9344H67.677V59.4894H63.1689ZM63.1689 54.8824V56.3132H67.677V54.8824H63.1689ZM62.2068 53.9668H68.6803V61.8643H62.2068V53.9668ZM65.8078 61.4208H66.7974V65.0549C66.7974 65.4125 66.8661 65.4698 67.1959 65.4698C67.3471 65.4698 68.0618 65.4698 68.268 65.4698C68.5841 65.4698 68.6391 65.2552 68.6803 63.7815C68.8865 63.9532 69.2988 64.1249 69.5599 64.1821C69.4775 65.9562 69.2163 66.414 68.3779 66.414C68.1718 66.414 67.2372 66.414 67.0447 66.414C66.0414 66.414 65.8078 66.0993 65.8078 65.0692V61.4208ZM63.4713 61.6354H64.4746C64.2272 64.0533 63.5262 65.6987 60.7499 66.6C60.6399 66.3282 60.3651 65.9133 60.1589 65.713C62.6878 64.9976 63.2513 63.6241 63.4713 61.6354ZM58.757 54.4818H59.7466V62.9088L58.757 63.0805V54.4818Z" fill="#333333"/>
</svg>
